<svg width="512" height="512" viewBox="0 0 512 512" fill="none" xmlns="http://www.w3.org/2000/svg">
<path d="M62.5919 399.054C60.9512 399.054 59.6891 398.612 58.8056 397.729C57.9221 396.845 57.4804 395.583 57.4804 393.942V359.677C57.4804 358.036 57.9221 356.774 58.8056 355.89C59.6891 355.007 60.9512 354.565 62.5919 354.565H84.6153C85.8774 354.565 86.824 354.902 87.455 355.575C88.1281 356.206 88.4647 357.131 88.4647 358.351C88.4647 359.613 88.1281 360.581 87.455 361.254C86.824 361.885 85.8774 362.201 84.6153 362.201H66.8199V372.613H83.1639C84.4681 372.613 85.4357 372.95 86.0667 373.623C86.7398 374.254 87.0764 375.2 87.0764 376.462C87.0764 377.724 86.7398 378.692 86.0667 379.365C85.4357 379.996 84.4681 380.312 83.1639 380.312H66.8199V391.418H84.6153C85.8774 391.418 86.824 391.755 87.455 392.428C88.1281 393.059 88.4647 393.984 88.4647 395.204C88.4647 396.466 88.1281 397.434 87.455 398.107C86.824 398.738 85.8774 399.054 84.6153 399.054H62.5919ZM98.9109 399.622C97.6488 399.622 96.5971 399.285 95.7557 398.612C94.9564 397.897 94.4936 397.034 94.3674 396.025C94.2412 394.973 94.5777 393.9 95.3771 392.806L109.323 374.317V378.671L95.945 360.876C95.1457 359.74 94.7881 358.667 94.8722 357.657C94.9984 356.605 95.4612 355.743 96.2605 355.07C97.1019 354.355 98.1326 353.997 99.3526 353.997C100.404 353.997 101.309 354.25 102.066 354.754C102.865 355.259 103.665 356.059 104.464 357.152L114.876 371.54H111.721L122.07 357.152C122.87 356.017 123.669 355.217 124.468 354.754C125.268 354.25 126.193 353.997 127.245 353.997C128.507 353.997 129.538 354.334 130.337 355.007C131.178 355.68 131.641 356.542 131.725 357.594C131.851 358.604 131.494 359.698 130.652 360.876L117.211 378.671V374.317L131.094 392.806C131.936 393.9 132.293 394.973 132.167 396.025C132.083 397.034 131.62 397.897 130.779 398.612C129.979 399.285 128.928 399.622 127.623 399.622C126.614 399.622 125.709 399.369 124.91 398.864C124.153 398.36 123.353 397.539 122.512 396.403L111.658 381.448H114.876L104.022 396.403C103.223 397.539 102.424 398.36 101.624 398.864C100.825 399.369 99.9206 399.622 98.9109 399.622ZM159.698 399.748C154.902 399.748 150.8 398.801 147.392 396.908C143.985 395.015 141.355 392.365 139.504 388.957C137.695 385.507 136.791 381.448 136.791 376.778C136.791 373.286 137.296 370.152 138.305 367.375C139.357 364.557 140.872 362.159 142.849 360.181C144.826 358.162 147.224 356.605 150.043 355.512C152.903 354.418 156.122 353.871 159.698 353.871C161.801 353.871 163.926 354.144 166.071 354.691C168.259 355.196 170.152 355.932 171.751 356.9C172.802 357.489 173.518 358.225 173.896 359.109C174.275 359.992 174.38 360.876 174.212 361.759C174.086 362.642 173.728 363.4 173.139 364.031C172.592 364.662 171.898 365.061 171.057 365.23C170.215 365.398 169.269 365.209 168.217 364.662C166.955 363.905 165.63 363.358 164.241 363.021C162.853 362.685 161.444 362.516 160.013 362.516C157.195 362.516 154.818 363.084 152.882 364.22C150.989 365.314 149.559 366.913 148.591 369.016C147.624 371.119 147.14 373.707 147.14 376.778C147.14 379.807 147.624 382.394 148.591 384.54C149.559 386.685 150.989 388.326 152.882 389.462C154.818 390.556 157.195 391.103 160.013 391.103C161.359 391.103 162.727 390.934 164.115 390.598C165.545 390.261 166.913 389.735 168.217 389.02C169.311 388.473 170.278 388.284 171.12 388.452C172.003 388.578 172.718 388.957 173.265 389.588C173.854 390.177 174.212 390.892 174.338 391.734C174.506 392.575 174.422 393.416 174.086 394.258C173.749 395.099 173.118 395.814 172.192 396.403C170.636 397.455 168.722 398.275 166.45 398.864C164.178 399.453 161.927 399.748 159.698 399.748ZM186.996 399.054C185.356 399.054 184.093 398.612 183.21 397.729C182.327 396.845 181.885 395.583 181.885 393.942V359.677C181.885 358.036 182.327 356.774 183.21 355.89C184.093 355.007 185.356 354.565 186.996 354.565H209.02C210.282 354.565 211.228 354.902 211.859 355.575C212.533 356.206 212.869 357.131 212.869 358.351C212.869 359.613 212.533 360.581 211.859 361.254C211.228 361.885 210.282 362.201 209.02 362.201H191.224V372.613H207.568C208.872 372.613 209.84 372.95 210.471 373.623C211.144 374.254 211.481 375.2 211.481 376.462C211.481 377.724 211.144 378.692 210.471 379.365C209.84 379.996 208.872 380.312 207.568 380.312H191.224V391.418H209.02C210.282 391.418 211.228 391.755 211.859 392.428C212.533 393.059 212.869 393.984 212.869 395.204C212.869 396.466 212.533 397.434 211.859 398.107C211.228 398.738 210.282 399.054 209.02 399.054H186.996ZM225.709 399.054C224.11 399.054 222.869 398.612 221.986 397.729C221.144 396.845 220.724 395.625 220.724 394.068V359.424C220.724 357.783 221.144 356.542 221.986 355.701C222.827 354.86 224.047 354.439 225.646 354.439C227.202 354.439 228.401 354.86 229.243 355.701C230.084 356.542 230.505 357.783 230.505 359.424V390.787H247.417C248.763 390.787 249.794 391.145 250.509 391.86C251.266 392.575 251.645 393.585 251.645 394.889C251.645 396.235 251.266 397.266 250.509 397.981C249.794 398.696 248.763 399.054 247.417 399.054H225.709ZM262.514 399.054C260.915 399.054 259.674 398.612 258.791 397.729C257.949 396.845 257.529 395.625 257.529 394.068V359.424C257.529 357.783 257.949 356.542 258.791 355.701C259.632 354.86 260.852 354.439 262.451 354.439C264.007 354.439 265.206 354.86 266.048 355.701C266.889 356.542 267.31 357.783 267.31 359.424V390.787H284.222C285.568 390.787 286.599 391.145 287.314 391.86C288.071 392.575 288.45 393.585 288.45 394.889C288.45 396.235 288.071 397.266 287.314 397.981C286.599 398.696 285.568 399.054 284.222 399.054H262.514ZM299.445 399.054C297.805 399.054 296.543 398.612 295.659 397.729C294.776 396.845 294.334 395.583 294.334 393.942V359.677C294.334 358.036 294.776 356.774 295.659 355.89C296.543 355.007 297.805 354.565 299.445 354.565H321.469C322.731 354.565 323.677 354.902 324.309 355.575C324.982 356.206 325.318 357.131 325.318 358.351C325.318 359.613 324.982 360.581 324.309 361.254C323.677 361.885 322.731 362.201 321.469 362.201H303.673V372.613H320.017C321.322 372.613 322.289 372.95 322.92 373.623C323.593 374.254 323.93 375.2 323.93 376.462C323.93 377.724 323.593 378.692 322.92 379.365C322.289 379.996 321.322 380.312 320.017 380.312H303.673V391.418H321.469C322.731 391.418 323.677 391.755 324.309 392.428C324.982 393.059 325.318 393.984 325.318 395.204C325.318 396.466 324.982 397.434 324.309 398.107C323.677 398.738 322.731 399.054 321.469 399.054H299.445ZM337.716 399.622C336.244 399.622 335.108 399.222 334.309 398.423C333.551 397.581 333.173 396.403 333.173 394.889V358.919C333.173 357.321 333.551 356.101 334.309 355.259C335.108 354.418 336.16 353.997 337.464 353.997C338.6 353.997 339.462 354.229 340.051 354.691C340.682 355.112 341.397 355.827 342.197 356.837L364.346 385.045H362.642V358.667C362.642 357.194 363.021 356.059 363.778 355.259C364.578 354.418 365.714 353.997 367.186 353.997C368.658 353.997 369.773 354.418 370.531 355.259C371.33 356.059 371.729 357.194 371.729 358.667V395.078C371.729 396.466 371.372 397.581 370.657 398.423C369.942 399.222 368.974 399.622 367.754 399.622C366.576 399.622 365.629 399.39 364.914 398.928C364.241 398.465 363.505 397.729 362.706 396.719L340.619 368.511H342.26V394.889C342.26 396.403 341.881 397.581 341.124 398.423C340.367 399.222 339.231 399.622 337.716 399.622ZM402.899 399.748C398.103 399.748 394.001 398.801 390.593 396.908C387.186 395.015 384.556 392.365 382.705 388.957C380.896 385.507 379.992 381.448 379.992 376.778C379.992 373.286 380.497 370.152 381.506 367.375C382.558 364.557 384.072 362.159 386.05 360.181C388.027 358.162 390.425 356.605 393.244 355.512C396.104 354.418 399.323 353.871 402.899 353.871C405.002 353.871 407.127 354.144 409.272 354.691C411.46 355.196 413.353 355.932 414.952 356.9C416.003 357.489 416.719 358.225 417.097 359.109C417.476 359.992 417.581 360.876 417.413 361.759C417.286 362.642 416.929 363.4 416.34 364.031C415.793 364.662 415.099 365.061 414.257 365.23C413.416 365.398 412.469 365.209 411.418 364.662C410.156 363.905 408.83 363.358 407.442 363.021C406.054 362.685 404.645 362.516 403.214 362.516C400.395 362.516 398.019 363.084 396.083 364.22C394.19 365.314 392.76 366.913 391.792 369.016C390.825 371.119 390.341 373.707 390.341 376.778C390.341 379.807 390.825 382.394 391.792 384.54C392.76 386.685 394.19 388.326 396.083 389.462C398.019 390.556 400.395 391.103 403.214 391.103C404.56 391.103 405.928 390.934 407.316 390.598C408.746 390.261 410.114 389.735 411.418 389.02C412.512 388.473 413.479 388.284 414.321 388.452C415.204 388.578 415.919 388.957 416.466 389.588C417.055 390.177 417.413 390.892 417.539 391.734C417.707 392.575 417.623 393.416 417.286 394.258C416.95 395.099 416.319 395.814 415.393 396.403C413.837 397.455 411.923 398.275 409.651 398.864C407.379 399.453 405.128 399.748 402.899 399.748ZM430.197 399.054C428.557 399.054 427.294 398.612 426.411 397.729C425.527 396.845 425.086 395.583 425.086 393.942V359.677C425.086 358.036 425.527 356.774 426.411 355.89C427.294 355.007 428.557 354.565 430.197 354.565H452.221C453.483 354.565 454.429 354.902 455.06 355.575C455.733 356.206 456.07 357.131 456.07 358.351C456.07 359.613 455.733 360.581 455.06 361.254C454.429 361.885 453.483 362.201 452.221 362.201H434.425V372.613H450.769C452.073 372.613 453.041 372.95 453.672 373.623C454.345 374.254 454.682 375.2 454.682 376.462C454.682 377.724 454.345 378.692 453.672 379.365C453.041 379.996 452.073 380.312 450.769 380.312H434.425V391.418H452.221C453.483 391.418 454.429 391.755 455.06 392.428C455.733 393.059 456.07 393.984 456.07 395.204C456.07 396.466 455.733 397.434 455.06 398.107C454.429 398.738 453.483 399.054 452.221 399.054H430.197Z" fill="#000100"/>
<path d="M136.258 441.819C135.46 441.819 134.844 441.614 134.409 441.203C133.998 440.768 133.792 440.151 133.792 439.354V418.721C133.792 417.923 133.998 417.319 134.409 416.908C134.844 416.473 135.46 416.255 136.258 416.255H149.203C149.808 416.255 150.267 416.412 150.581 416.726C150.92 417.041 151.089 417.488 151.089 418.068C151.089 418.672 150.92 419.144 150.581 419.482C150.267 419.797 149.808 419.954 149.203 419.954H138.252V426.988H148.406C149.034 426.988 149.505 427.146 149.82 427.46C150.134 427.774 150.291 428.233 150.291 428.838C150.291 429.442 150.134 429.901 149.82 430.216C149.505 430.53 149.034 430.687 148.406 430.687H138.252V438.121H149.203C149.808 438.121 150.267 438.278 150.581 438.592C150.92 438.906 151.089 439.366 151.089 439.97C151.089 440.574 150.92 441.034 150.581 441.348C150.267 441.662 149.808 441.819 149.203 441.819H136.258ZM157.967 442.109C157.266 442.109 156.722 441.916 156.335 441.529C155.973 441.142 155.791 440.586 155.791 439.861V418.286C155.791 417.536 155.973 416.968 156.335 416.581C156.722 416.17 157.218 415.965 157.822 415.965C158.378 415.965 158.789 416.074 159.055 416.291C159.345 416.485 159.683 416.823 160.07 417.307L173.958 435.329H173.015V418.177C173.015 417.476 173.197 416.932 173.559 416.545C173.946 416.158 174.49 415.965 175.191 415.965C175.892 415.965 176.424 416.158 176.787 416.545C177.149 416.932 177.331 417.476 177.331 418.177V439.934C177.331 440.611 177.161 441.142 176.823 441.529C176.484 441.916 176.025 442.109 175.445 442.109C174.889 442.109 174.442 442.001 174.103 441.783C173.789 441.566 173.438 441.215 173.052 440.731L159.2 422.71H160.106V439.861C160.106 440.586 159.925 441.142 159.562 441.529C159.2 441.916 158.668 442.109 157.967 442.109ZM195.572 442.182C192.743 442.182 190.35 441.65 188.392 440.586C186.458 439.523 184.983 438.012 183.968 436.054C182.953 434.096 182.445 431.775 182.445 429.092C182.445 427.061 182.735 425.236 183.315 423.616C183.92 421.996 184.778 420.618 185.89 419.482C187.026 418.322 188.404 417.44 190.024 416.835C191.643 416.207 193.481 415.892 195.536 415.892C196.889 415.892 198.243 416.062 199.597 416.4C200.975 416.714 202.268 417.258 203.477 418.032C203.888 418.298 204.154 418.624 204.275 419.011C204.42 419.398 204.444 419.797 204.347 420.207C204.25 420.594 204.069 420.933 203.803 421.223C203.537 421.513 203.199 421.694 202.788 421.767C202.401 421.839 201.966 421.743 201.482 421.477C200.564 420.945 199.633 420.558 198.69 420.316C197.747 420.075 196.696 419.954 195.536 419.954C193.747 419.954 192.236 420.316 191.003 421.042C189.77 421.743 188.839 422.77 188.211 424.124C187.606 425.477 187.304 427.133 187.304 429.092C187.304 432.065 188.017 434.325 189.444 435.872C190.87 437.42 192.985 438.193 195.789 438.193C196.756 438.193 197.735 438.096 198.727 437.903C199.718 437.71 200.685 437.444 201.627 437.105L200.721 439.172V431.449H196.732C196.128 431.449 195.656 431.291 195.318 430.977C195.004 430.663 194.847 430.24 194.847 429.708C194.847 429.152 195.004 428.729 195.318 428.439C195.656 428.149 196.128 428.004 196.732 428.004H202.715C203.32 428.004 203.779 428.173 204.093 428.511C204.432 428.826 204.601 429.285 204.601 429.889V438.701C204.601 439.233 204.492 439.68 204.275 440.043C204.081 440.405 203.755 440.671 203.295 440.84C202.232 441.227 201.011 441.553 199.633 441.819C198.255 442.061 196.901 442.182 195.572 442.182ZM212.663 442.109C211.913 442.109 211.333 441.904 210.922 441.493C210.536 441.058 210.342 440.466 210.342 439.716V418.358C210.342 417.585 210.536 416.992 210.922 416.581C211.333 416.17 211.913 415.965 212.663 415.965C213.412 415.965 213.98 416.17 214.367 416.581C214.778 416.992 214.984 417.585 214.984 418.358V439.716C214.984 440.466 214.79 441.058 214.403 441.493C214.017 441.904 213.436 442.109 212.663 442.109ZM223.114 442.109C222.413 442.109 221.869 441.916 221.483 441.529C221.12 441.142 220.939 440.586 220.939 439.861V418.286C220.939 417.536 221.12 416.968 221.483 416.581C221.869 416.17 222.365 415.965 222.969 415.965C223.525 415.965 223.936 416.074 224.202 416.291C224.492 416.485 224.831 416.823 225.218 417.307L239.106 435.329H238.163V418.177C238.163 417.476 238.344 416.932 238.707 416.545C239.094 416.158 239.638 415.965 240.339 415.965C241.04 415.965 241.571 416.158 241.934 416.545C242.297 416.932 242.478 417.476 242.478 418.177V439.934C242.478 440.611 242.309 441.142 241.97 441.529C241.632 441.916 241.173 442.109 240.592 442.109C240.036 442.109 239.589 442.001 239.251 441.783C238.936 441.566 238.586 441.215 238.199 440.731L224.347 422.71H225.254V439.861C225.254 440.586 225.072 441.142 224.71 441.529C224.347 441.916 223.815 442.109 223.114 442.109ZM250.892 441.819C250.095 441.819 249.478 441.614 249.043 441.203C248.632 440.768 248.427 440.151 248.427 439.354V418.721C248.427 417.923 248.632 417.319 249.043 416.908C249.478 416.473 250.095 416.255 250.892 416.255H263.838C264.442 416.255 264.901 416.412 265.216 416.726C265.554 417.041 265.723 417.488 265.723 418.068C265.723 418.672 265.554 419.144 265.216 419.482C264.901 419.797 264.442 419.954 263.838 419.954H252.887V426.988H263.04C263.668 426.988 264.14 427.146 264.454 427.46C264.768 427.774 264.926 428.233 264.926 428.838C264.926 429.442 264.768 429.901 264.454 430.216C264.14 430.53 263.668 430.687 263.04 430.687H252.887V438.121H263.838C264.442 438.121 264.901 438.278 265.216 438.592C265.554 438.906 265.723 439.366 265.723 439.97C265.723 440.574 265.554 441.034 265.216 441.348C264.901 441.662 264.442 441.819 263.838 441.819H250.892ZM272.891 441.819C272.094 441.819 271.477 441.614 271.042 441.203C270.631 440.768 270.426 440.151 270.426 439.354V418.721C270.426 417.923 270.631 417.319 271.042 416.908C271.477 416.473 272.094 416.255 272.891 416.255H285.837C286.441 416.255 286.9 416.412 287.215 416.726C287.553 417.041 287.722 417.488 287.722 418.068C287.722 418.672 287.553 419.144 287.215 419.482C286.9 419.797 286.441 419.954 285.837 419.954H274.886V426.988H285.039C285.668 426.988 286.139 427.146 286.453 427.46C286.768 427.774 286.925 428.233 286.925 428.838C286.925 429.442 286.768 429.901 286.453 430.216C286.139 430.53 285.668 430.687 285.039 430.687H274.886V438.121H285.837C286.441 438.121 286.9 438.278 287.215 438.592C287.553 438.906 287.722 439.366 287.722 439.97C287.722 440.574 287.553 441.034 287.215 441.348C286.9 441.662 286.441 441.819 285.837 441.819H272.891ZM294.746 442.109C293.996 442.109 293.416 441.904 293.005 441.493C292.618 441.058 292.425 440.466 292.425 439.716V418.612C292.425 417.838 292.63 417.258 293.041 416.871C293.452 416.46 294.032 416.255 294.782 416.255H303.521C306.325 416.255 308.489 416.932 310.012 418.286C311.535 419.615 312.296 421.489 312.296 423.906C312.296 425.477 311.946 426.831 311.245 427.967C310.568 429.104 309.576 429.974 308.271 430.578C306.966 431.183 305.382 431.485 303.521 431.485L303.847 430.941H305.044C306.035 430.941 306.893 431.183 307.618 431.666C308.368 432.15 309.02 432.911 309.576 433.951L312.296 438.991C312.586 439.499 312.719 439.994 312.695 440.478C312.671 440.961 312.49 441.36 312.151 441.674C311.813 441.964 311.317 442.109 310.664 442.109C310.012 442.109 309.48 441.976 309.069 441.711C308.658 441.42 308.295 440.985 307.981 440.405L304.319 433.661C303.883 432.839 303.364 432.295 302.759 432.029C302.179 431.739 301.43 431.594 300.511 431.594H297.066V439.716C297.066 440.466 296.873 441.058 296.486 441.493C296.099 441.904 295.519 442.109 294.746 442.109ZM297.066 428.149H302.723C304.391 428.149 305.648 427.81 306.494 427.133C307.365 426.432 307.8 425.393 307.8 424.015C307.8 422.661 307.365 421.646 306.494 420.969C305.648 420.268 304.391 419.917 302.723 419.917H297.066V428.149ZM319.967 442.109C319.218 442.109 318.638 441.904 318.227 441.493C317.84 441.058 317.646 440.466 317.646 439.716V418.358C317.646 417.585 317.84 416.992 318.227 416.581C318.638 416.17 319.218 415.965 319.967 415.965C320.717 415.965 321.285 416.17 321.671 416.581C322.082 416.992 322.288 417.585 322.288 418.358V439.716C322.288 440.466 322.094 441.058 321.708 441.493C321.321 441.904 320.741 442.109 319.967 442.109ZM330.419 442.109C329.718 442.109 329.174 441.916 328.787 441.529C328.424 441.142 328.243 440.586 328.243 439.861V418.286C328.243 417.536 328.424 416.968 328.787 416.581C329.174 416.17 329.669 415.965 330.274 415.965C330.83 415.965 331.241 416.074 331.506 416.291C331.797 416.485 332.135 416.823 332.522 417.307L346.41 435.329H345.467V418.177C345.467 417.476 345.648 416.932 346.011 416.545C346.398 416.158 346.942 415.965 347.643 415.965C348.344 415.965 348.876 416.158 349.238 416.545C349.601 416.932 349.782 417.476 349.782 418.177V439.934C349.782 440.611 349.613 441.142 349.275 441.529C348.936 441.916 348.477 442.109 347.897 442.109C347.341 442.109 346.893 442.001 346.555 441.783C346.241 441.566 345.89 441.215 345.503 440.731L331.652 422.71H332.558V439.861C332.558 440.586 332.377 441.142 332.014 441.529C331.652 441.916 331.12 442.109 330.419 442.109ZM368.023 442.182C365.195 442.182 362.802 441.65 360.844 440.586C358.91 439.523 357.435 438.012 356.42 436.054C355.404 434.096 354.897 431.775 354.897 429.092C354.897 427.061 355.187 425.236 355.767 423.616C356.371 421.996 357.23 420.618 358.342 419.482C359.478 418.322 360.856 417.44 362.475 416.835C364.095 416.207 365.932 415.892 367.987 415.892C369.341 415.892 370.695 416.062 372.049 416.4C373.426 416.714 374.72 417.258 375.928 418.032C376.339 418.298 376.605 418.624 376.726 419.011C376.871 419.398 376.895 419.797 376.799 420.207C376.702 420.594 376.521 420.933 376.255 421.223C375.989 421.513 375.65 421.694 375.24 421.767C374.853 421.839 374.418 421.743 373.934 421.477C373.015 420.945 372.085 420.558 371.142 420.316C370.199 420.075 369.148 419.954 367.987 419.954C366.198 419.954 364.687 420.316 363.455 421.042C362.222 421.743 361.291 422.77 360.662 424.124C360.058 425.477 359.756 427.133 359.756 429.092C359.756 432.065 360.469 434.325 361.895 435.872C363.322 437.42 365.437 438.193 368.241 438.193C369.208 438.193 370.187 438.096 371.178 437.903C372.169 437.71 373.136 437.444 374.079 437.105L373.173 439.172V431.449H369.184C368.579 431.449 368.108 431.291 367.77 430.977C367.455 430.663 367.298 430.24 367.298 429.708C367.298 429.152 367.455 428.729 367.77 428.439C368.108 428.149 368.579 428.004 369.184 428.004H375.167C375.771 428.004 376.231 428.173 376.545 428.511C376.883 428.826 377.053 429.285 377.053 429.889V438.701C377.053 439.233 376.944 439.68 376.726 440.043C376.533 440.405 376.206 440.671 375.747 440.84C374.684 441.227 373.463 441.553 372.085 441.819C370.707 442.061 369.353 442.182 368.023 442.182Z" fill="#000100"/>
<path d="M194.755 182.182L134.918 177.674L130 176.445L184.919 171.526L136.148 155.952L187.788 159.231L141.885 136.28L193.116 148.985L152.132 117.837L198.854 138.739L164.837 100.624L207.87 130.132L180.001 86.2792L216.887 121.526L198.034 73.574L228.362 116.198L216.887 65.787L240.248 112.509L237.379 60.4591L252.133 110.87L258.281 58L264.428 110.87L279.183 60.4591L276.314 112.509L299.265 66.6067L288.199 116.198L318.938 73.9839L299.265 122.345L337.38 85.4595L308.691 129.722L352.954 100.214L317.708 138.329L366.069 117.017L323.446 148.985L375.086 137.1L328.774 159.641L380.414 156.362L332.052 171.936L381.643 176.445V177.674L321.806 182.182C304.593 88.3284 193.116 117.017 194.755 182.182Z" fill="url(#paint0_linear_106_30)"/>
<path d="M206.444 293.659H173.657C190.87 311.692 212.045 317.43 226.526 321.938L226.936 319.889C216.772 308.741 209.04 297.758 206.444 293.659Z" fill="url(#paint1_linear_106_30)"/>
<path d="M306.446 293.25H339.233C322.02 311.283 300.845 317.021 286.363 321.529L285.954 319.48C296.118 308.332 303.85 297.348 306.446 293.25Z" fill="url(#paint2_linear_106_30)"/>
<path d="M213.821 220.297C211.526 218.33 204.122 201.171 200.706 192.838H238.002C239.314 198.412 247.292 213.467 251.117 220.297H213.821Z" fill="url(#paint3_linear_106_30)"/>
<path d="M170.378 220.297C168.083 218.33 160.678 201.171 157.263 192.838H194.559C195.87 198.412 203.849 213.467 207.674 220.297H170.378Z" fill="url(#paint4_linear_106_30)"/>
<path d="M387.185 220.293C389.48 218.326 395.655 201.169 399.07 192.836L361.775 192.834C360.463 198.408 353.714 213.463 349.889 220.293H387.185Z" fill="url(#paint5_linear_106_30)"/>
<path d="M343.741 220.708C346.037 218.74 352.212 201.583 355.627 193.25L318.331 193.248C317.02 198.822 310.271 213.877 306.446 220.708H343.741Z" fill="url(#paint6_linear_106_30)"/>
<path d="M325.299 254.315C327.594 252.348 337.047 235.189 340.463 226.855H302.757C301.446 232.429 292.238 247.484 288.413 254.315H325.299Z" fill="url(#paint7_linear_106_30)"/>
<path d="M303.167 287.102C305.462 285.135 316.692 271.118 321.61 259.643H284.314C281.036 269.069 270.789 280.135 266.691 287.102H303.167Z" fill="url(#paint8_linear_106_30)"/>
<path d="M369.562 254.315C371.857 252.348 381.31 235.189 384.726 226.855H347.02C345.709 232.429 336.501 247.484 332.676 254.315H369.562Z" fill="url(#paint9_linear_106_30)"/>
<path d="M345.791 287.102C348.086 285.135 362.594 269.069 366.693 259.643H328.987C327.676 265.216 315.599 280.271 311.774 287.102H345.791Z" fill="url(#paint10_linear_106_30)"/>
<path d="M299.478 220.708C301.774 218.74 307.949 201.583 311.364 193.25L274.068 193.248C272.757 198.822 266.008 213.877 262.183 220.708H299.478Z" fill="url(#paint11_linear_106_30)"/>
<path d="M280.216 254.314C283.085 250.626 293.741 233.823 296.2 226.855L258.904 226.857C257.674 231.364 244.15 250.626 242.1 254.314H280.216Z" fill="url(#paint12_linear_106_30)"/>
<path d="M126.115 220.708C123.82 218.74 116.415 201.582 113 193.248H150.296C151.607 198.822 159.585 213.877 163.411 220.708H126.115Z" fill="url(#paint13_linear_106_30)"/>
<path d="M142.509 254.315C139.23 248.167 129.804 235.052 129.394 226.855H165.46C166.771 232.429 175.979 247.074 179.804 253.905L142.509 254.315Z" fill="url(#paint14_linear_106_30)"/>
<path d="M186.772 254.315C183.493 248.167 174.067 235.052 173.657 226.855H209.723C211.034 232.429 220.242 247.074 224.067 253.905L186.772 254.315Z" fill="url(#paint15_linear_106_30)"/>
<path d="M208.903 286.941C205.624 280.793 192.51 265.79 191.69 260.052L228.195 260.462C229.395 264.561 243.33 281.774 245.379 286.692L208.903 286.941Z" fill="url(#paint16_linear_106_30)"/>
<path d="M237.182 321.529C231.035 313.742 215.871 299.398 213.821 293.25H251.527C252.756 296.529 271.609 316.611 273.658 321.529H237.182Z" fill="url(#paint17_linear_106_30)"/>
<path d="M164.64 286.531C161.361 280.384 148.247 265.381 147.427 259.643L183.932 260.053C185.132 264.152 199.067 281.365 201.116 286.283L164.64 286.531Z" fill="url(#paint18_linear_106_30)"/>
<path d="M278.512 317.118C279.18 317.914 280.41 317.896 281.054 317.081L297.789 295.906C298.639 294.831 297.873 293.25 296.503 293.25H262.009C260.616 293.25 259.858 294.876 260.753 295.943L278.512 317.118Z" fill="url(#paint19_linear_106_30)"/>
<path d="M255.113 288.881C255.762 289.811 257.137 289.817 257.794 288.893L276.737 262.232C277.508 261.146 276.732 259.643 275.401 259.643H237.865C236.54 259.643 235.763 261.133 236.521 262.22L255.113 288.881Z" fill="url(#paint20_linear_106_30)"/>
<defs>
<linearGradient id="paint0_linear_106_30" x1="255.822" y1="58" x2="255.822" y2="182.182" gradientUnits="userSpaceOnUse">
<stop offset="0.122969" stop-color="#EDA544"/>
<stop offset="0.805837" stop-color="#E97F3A"/>
</linearGradient>
<linearGradient id="paint1_linear_106_30" x1="200.297" y1="293.659" x2="200.297" y2="321.938" gradientUnits="userSpaceOnUse">
<stop stop-color="#5AA9D6"/>
<stop offset="1" stop-color="#2CB1BC"/>
</linearGradient>
<linearGradient id="paint2_linear_106_30" x1="312.593" y1="321.529" x2="312.593" y2="293.25" gradientUnits="userSpaceOnUse">
<stop stop-color="#5AA9D6"/>
<stop offset="1" stop-color="#2CB1BC"/>
</linearGradient>
<linearGradient id="paint3_linear_106_30" x1="225.912" y1="192.838" x2="225.912" y2="220.297" gradientUnits="userSpaceOnUse">
<stop stop-color="#5AA9D6"/>
<stop offset="1" stop-color="#2CB1BC"/>
</linearGradient>
<linearGradient id="paint4_linear_106_30" x1="182.468" y1="192.838" x2="182.468" y2="220.297" gradientUnits="userSpaceOnUse">
<stop stop-color="#5AA9D6"/>
<stop offset="1" stop-color="#2CB1BC"/>
</linearGradient>
<linearGradient id="paint5_linear_106_30" x1="374.48" y1="220.293" x2="374.48" y2="192.834" gradientUnits="userSpaceOnUse">
<stop stop-color="#5AA9D6"/>
<stop offset="1" stop-color="#2CB1BC"/>
</linearGradient>
<linearGradient id="paint6_linear_106_30" x1="331.036" y1="220.708" x2="331.036" y2="193.248" gradientUnits="userSpaceOnUse">
<stop stop-color="#5AA9D6"/>
<stop offset="1" stop-color="#2CB1BC"/>
</linearGradient>
<linearGradient id="paint7_linear_106_30" x1="314.438" y1="254.315" x2="314.438" y2="226.855" gradientUnits="userSpaceOnUse">
<stop stop-color="#5AA9D6"/>
<stop offset="1" stop-color="#2CB1BC"/>
</linearGradient>
<linearGradient id="paint8_linear_106_30" x1="294.151" y1="287.102" x2="294.151" y2="259.643" gradientUnits="userSpaceOnUse">
<stop stop-color="#5AA9D6"/>
<stop offset="1" stop-color="#2CB1BC"/>
</linearGradient>
<linearGradient id="paint9_linear_106_30" x1="358.701" y1="254.315" x2="358.701" y2="226.855" gradientUnits="userSpaceOnUse">
<stop stop-color="#5AA9D6"/>
<stop offset="1" stop-color="#2CB1BC"/>
</linearGradient>
<linearGradient id="paint10_linear_106_30" x1="339.233" y1="287.102" x2="339.233" y2="259.643" gradientUnits="userSpaceOnUse">
<stop stop-color="#5AA9D6"/>
<stop offset="1" stop-color="#2CB1BC"/>
</linearGradient>
<linearGradient id="paint11_linear_106_30" x1="286.773" y1="220.708" x2="286.773" y2="193.248" gradientUnits="userSpaceOnUse">
<stop stop-color="#5AA9D6"/>
<stop offset="1" stop-color="#2CB1BC"/>
</linearGradient>
<linearGradient id="paint12_linear_106_30" x1="269.15" y1="254.314" x2="269.15" y2="226.855" gradientUnits="userSpaceOnUse">
<stop stop-color="#5AA9D6"/>
<stop offset="1" stop-color="#2CB1BC"/>
</linearGradient>
<linearGradient id="paint13_linear_106_30" x1="138.205" y1="193.248" x2="138.205" y2="220.708" gradientUnits="userSpaceOnUse">
<stop stop-color="#5AA9D6"/>
<stop offset="1" stop-color="#2CB1BC"/>
</linearGradient>
<linearGradient id="paint14_linear_106_30" x1="154.599" y1="226.855" x2="154.599" y2="254.315" gradientUnits="userSpaceOnUse">
<stop stop-color="#5AA9D6"/>
<stop offset="1" stop-color="#2CB1BC"/>
</linearGradient>
<linearGradient id="paint15_linear_106_30" x1="198.862" y1="226.855" x2="198.862" y2="254.315" gradientUnits="userSpaceOnUse">
<stop stop-color="#5AA9D6"/>
<stop offset="1" stop-color="#2CB1BC"/>
</linearGradient>
<linearGradient id="paint16_linear_106_30" x1="218.535" y1="260.052" x2="218.535" y2="286.941" gradientUnits="userSpaceOnUse">
<stop stop-color="#5AA9D6"/>
<stop offset="1" stop-color="#2CB1BC"/>
</linearGradient>
<linearGradient id="paint17_linear_106_30" x1="243.74" y1="293.25" x2="243.74" y2="321.529" gradientUnits="userSpaceOnUse">
<stop stop-color="#5AA9D6"/>
<stop offset="1" stop-color="#2CB1BC"/>
</linearGradient>
<linearGradient id="paint18_linear_106_30" x1="174.272" y1="259.643" x2="174.272" y2="286.531" gradientUnits="userSpaceOnUse">
<stop stop-color="#5AA9D6"/>
<stop offset="1" stop-color="#2CB1BC"/>
</linearGradient>
<linearGradient id="paint19_linear_106_30" x1="279.191" y1="293.25" x2="279.191" y2="318.66" gradientUnits="userSpaceOnUse">
<stop stop-color="#5AA9D6"/>
<stop offset="1" stop-color="#2CB1BC"/>
</linearGradient>
<linearGradient id="paint20_linear_106_30" x1="256.65" y1="259.643" x2="256.65" y2="290.791" gradientUnits="userSpaceOnUse">
<stop stop-color="#5AA9D6"/>
<stop offset="1" stop-color="#2CB1BC"/>
</linearGradient>
</defs>
</svg>
