<svg width="67" height="60" viewBox="0 0 67 60" fill="none" xmlns="http://www.w3.org/2000/svg">
<path d="M32.5333 0.327677C32.4473 0.528304 32.4186 1.93269 32.4473 3.42306C32.5333 5.8879 32.5906 6.11719 33.1065 6.11719C33.6511 6.11719 33.6798 5.91656 33.6798 3.10779C33.6798 0.470982 33.6225 0.0983896 33.1638 0.0124068C32.9059 -0.0449152 32.6193 0.0983896 32.5333 0.327677Z" fill="#E54750"/>
<path d="M22.5008 2.04725C22.2715 2.5918 24.0486 7.40684 24.5645 7.60747C24.7938 7.69345 25.1091 7.63613 25.2811 7.46416C25.7397 7.00559 23.7906 1.84662 23.1314 1.73198C22.8734 1.67465 22.5868 1.81796 22.5008 2.04725Z" fill="#E54750"/>
<path d="M42.3927 2.4485C41.0456 5.91647 40.673 7.20622 40.9309 7.46416C41.1029 7.63613 41.4182 7.69345 41.6475 7.60747C42.1348 7.4355 43.9405 2.62046 43.7399 2.04725C43.4819 1.41671 42.708 1.64599 42.3927 2.4485Z" fill="#E54750"/>
<path d="M13.6723 7.03457C13.5577 7.12055 13.4717 7.32118 13.4717 7.43582C13.4717 7.8944 17.0259 11.8496 17.4558 11.8496C18.4017 11.8496 18.0291 10.8465 16.338 8.86887C14.6755 6.94859 14.1309 6.576 13.6723 7.03457Z" fill="#E54750"/>
<path d="M49.8737 8.869C48.1826 10.8466 47.8386 11.7638 48.7272 11.9357C49.3004 12.0217 52.826 7.77989 52.6253 7.23533C52.31 6.43282 51.6221 6.86274 49.8737 8.869Z" fill="#E54750"/>
<path d="M27.5739 13.2541C21.1534 14.4865 14.4749 17.6106 8.08299 22.4256C5.07337 24.7185 0 29.4189 0 29.9348C0 30.4507 5.36 35.4663 8.14032 37.5586C15.2488 42.8895 22.6725 46.0995 29.9243 46.988C38.7525 48.0771 49.0139 44.5232 58.9026 36.9567C61.167 35.237 66.2117 30.336 66.2117 29.8774C66.2117 29.3616 61.3103 24.8331 58.1287 22.4256C52.6541 18.2984 46.6348 15.2604 41.0455 13.7987C37.606 12.8815 30.9561 12.6236 27.5739 13.2541ZM37.0614 14.7158C37.9786 14.9451 39.0965 15.3464 39.5551 15.5756L40.3863 16.0056L38.5232 19.2442C37.4913 20.9926 36.5454 22.5689 36.4021 22.7122C36.2588 22.8555 35.6855 22.8269 35.055 22.6836C33.9944 22.4256 33.9658 22.4256 33.8224 20.8779C33.7078 19.5308 33.5931 19.3016 33.1059 19.3016C32.6186 19.3016 32.5326 19.5308 32.4466 20.9066L32.3606 22.5402L31.1568 22.7122C30.2109 22.8842 29.8956 22.7982 29.609 22.3969C28.9211 21.4798 26.0834 16.3495 26.0834 16.0629C26.0834 15.7476 27.9752 14.9451 29.5803 14.5725C31.2141 14.1713 35.3416 14.2572 37.0614 14.7158ZM20.9527 17.9258C17.6278 21.2792 16.0513 25.1771 16.0227 29.9348C16.0227 34.9791 17.6278 38.791 21.268 42.3736C22.0706 43.1475 22.6438 43.8067 22.5865 43.8067C21.44 43.8067 15.1054 40.6253 11.7519 38.3611C8.91422 36.4408 4.8154 33.0875 2.92364 31.1385L1.69112 29.8488L4.41412 27.3553C9.54481 22.7409 14.9048 19.1869 19.9208 17.0947C21.354 16.5215 22.5865 16.0056 22.6725 16.0056C22.7872 16.0056 22.0133 16.8654 20.9527 17.9258ZM47.2941 17.5532C52.0808 19.6742 57.7275 23.5147 62.4282 27.8998L64.5206 29.8488L63.2881 31.1385C59.5046 35.0651 53.4853 39.3356 48.154 41.915C43.3673 44.2079 43.1093 44.2079 45.1444 42.173C48.0393 39.2496 49.6445 35.9822 50.1604 31.9697C50.705 27.6132 49.1572 21.7664 47.81 23.1135C47.6094 23.3141 47.6667 23.83 47.982 24.8331C48.24 25.607 48.5553 26.9254 48.6986 27.7279L48.9279 29.1896H44.8291H40.7303L40.415 28.0145C40.071 26.7247 40.0423 26.7247 41.6475 25.8649C42.5074 25.4063 42.7367 24.3172 41.9628 24.3172C41.7048 24.3172 41.0169 24.5752 40.4436 24.9191L39.3831 25.521L38.4372 24.6325L37.52 23.7727L39.4691 20.4193C40.5296 18.5564 41.5901 17.0087 41.7908 16.9227C41.9914 16.8654 43.138 17.8112 44.3131 19.015C46.4055 21.1072 47.2941 21.5371 47.2941 20.448C47.2941 20.1901 46.4055 19.1009 45.345 17.9832C43.1953 15.8049 43.2526 15.8049 47.2941 17.5532ZM26.7427 20.3334L28.6918 23.7727L27.8032 24.6612L26.9146 25.5496L25.7968 24.9191C25.1949 24.6038 24.5069 24.3172 24.249 24.3172C23.4751 24.3172 23.7044 25.4063 24.5929 25.8649C26.1694 26.7247 26.1407 26.7247 25.7968 28.0145L25.4815 29.1896H21.4973H17.4845V28.1005C17.5131 26.6674 18.5737 23.6294 19.7775 21.6231C20.7807 19.9321 23.819 16.8654 24.4496 16.8654C24.6503 16.8654 25.6821 18.4417 26.7427 20.3334ZM34.4817 24.002C36.2588 24.4319 37.7493 25.6356 38.5805 27.3839C39.2398 28.6737 39.3258 29.1609 39.1824 30.508C38.7812 34.4345 34.8257 37.014 31.0995 35.7816C28.8064 35.0364 26.9433 32.285 26.9433 29.7341C26.972 27.4699 28.9784 24.8904 31.2428 24.1739C32.7906 23.7153 33.0772 23.6867 34.4817 24.002ZM25.7968 31.8264C26.1121 32.9442 26.0834 33.0588 25.4528 33.546C25.1089 33.8327 24.5643 34.1193 24.3063 34.2339C23.733 34.4059 23.6184 35.3517 24.077 35.6383C24.249 35.7529 24.9369 35.495 25.6248 35.0937L26.8573 34.3772L27.7745 35.323L28.6918 36.2688L27.8605 37.6732C27.4019 38.4471 26.4847 40.0234 25.8254 41.1699L24.6216 43.2621L23.8477 42.6889C20.5514 40.3387 17.9718 36.0682 17.5705 32.3423L17.3985 30.6226H21.44H25.4815L25.7968 31.8264ZM48.7273 31.7404C48.7273 33.4314 47.724 36.3262 46.4342 38.3324C45.2877 40.0807 43.1093 42.4309 42.1061 42.9468C41.5615 43.2621 41.4468 43.0901 38.4659 37.7879L37.5773 36.2115L38.4659 35.2944L39.3544 34.3772L40.6156 35.1224C41.7048 35.7529 41.9628 35.8103 42.2781 35.4663C42.794 34.9791 42.5647 34.6352 41.2175 33.804C39.985 33.0875 40.0137 33.1448 40.4436 31.6831L40.7303 30.6226H44.7144H48.7273V31.7404ZM31.5867 37.358C32.2746 37.5299 32.3606 37.7019 32.4466 39.0203C32.5326 40.2814 32.6186 40.5107 33.1059 40.5107C33.5931 40.5107 33.6791 40.2814 33.7651 39.0203C33.8511 37.5586 33.8798 37.5299 34.9116 37.3006C35.4849 37.186 36.0582 37.0713 36.1728 37.0713C36.2875 37.0713 37.2907 38.619 38.3799 40.5107L40.3863 43.95L39.2111 44.4945C38.5519 44.7811 37.004 45.2111 35.7429 45.469C33.0772 45.9849 30.2396 45.7269 27.4306 44.6665C25.8254 44.0646 25.7968 44.0073 26.1694 43.4341C26.37 43.0901 27.3159 41.4851 28.2331 39.8515C29.437 37.7592 30.0389 36.9567 30.3542 37.0427C30.6122 37.1287 31.1568 37.272 31.5867 37.358Z" fill="#E54750"/>
<path d="M9.889 24.9763C7.7966 26.5526 6.7074 27.5558 6.65007 27.9857C6.59275 28.3869 6.7074 28.6162 6.99403 28.6162C7.71061 28.6162 14.0452 23.6865 14.0452 23.1133C14.0452 22.1388 13.0133 22.5974 9.889 24.9763Z" fill="#E54750"/>
<path d="M58.1002 31.74C57.2117 32.5139 56.0651 33.431 55.6065 33.775C54.6607 34.4628 54.4313 35.4946 55.2626 35.4946C56.0078 35.4946 60.8232 31.4821 60.7086 30.9375C60.5366 30.0777 59.7627 30.3357 58.1002 31.74Z" fill="#E54750"/>
<path d="M52.0825 36.2976C51.2513 36.8135 51.1653 37.5874 51.9105 37.7307C52.1685 37.7593 52.6844 37.5587 53.057 37.2434C53.659 36.7275 53.6876 36.6416 53.315 36.2403C52.9424 35.8677 52.7991 35.8677 52.0825 36.2976Z" fill="#E54750"/>
<path d="M31.5305 25.8075C29.5527 26.5527 27.9189 29.4761 29.4667 29.4761C29.7533 29.4761 30.1833 29.0748 30.4413 28.6162C30.6992 28.129 31.3871 27.4698 31.9604 27.1545C33.0496 26.4953 33.1643 26.266 32.6197 25.8075C32.3617 25.6355 31.9891 25.6355 31.5305 25.8075Z" fill="#E54750"/>
<path d="M15.3643 50.0258C13.5012 52.2327 13.1859 53.0352 14.0745 53.2072C14.6477 53.3218 18.1446 49.1373 18.0013 48.4781C17.8293 47.5036 17.1987 47.8476 15.3643 50.0258Z" fill="#E54750"/>
<path d="M48.5286 48.0199C47.812 48.2778 48.156 49.0517 49.9331 51.1439C51.7102 53.2648 52.3408 53.6374 52.6274 52.8349C52.9141 52.1184 49.1879 47.7333 48.5286 48.0199Z" fill="#E54750"/>
<path d="M23.9891 53.0354C23.7598 53.5513 23.2725 54.8697 22.8999 55.9302C22.2979 57.5925 22.2693 57.9078 22.6419 58.1371C22.8999 58.2804 23.1865 58.2804 23.3871 58.1084C23.8744 57.7072 25.5942 52.7775 25.3649 52.4335C25.0209 51.8317 24.3617 52.1183 23.9891 53.0354Z" fill="#E54750"/>
<path d="M40.8461 52.4335C40.6168 52.7775 42.3366 57.7072 42.8239 58.1084C43.0245 58.2804 43.3112 58.2804 43.5691 58.1371C43.9417 57.9078 43.8844 57.5352 43.1678 55.5003C42.7092 54.1819 42.222 52.8921 42.0786 52.6055C41.792 52.061 41.1328 51.9463 40.8461 52.4335Z" fill="#E54750"/>
<path d="M32.5333 53.8952C32.4473 54.1245 32.4186 55.5862 32.4473 57.1626C32.5333 59.7707 32.5906 60 33.1065 60C33.6511 60 33.6798 59.7994 33.6798 56.8473C33.6798 54.0672 33.6225 53.6946 33.1638 53.6086C32.9059 53.5513 32.6193 53.6946 32.5333 53.8952Z" fill="#E54750"/>
</svg>
