<svg width="54" height="60" viewBox="0 0 54 60" fill="none" xmlns="http://www.w3.org/2000/svg">
<path d="M23.2438 0.155666C20.4114 0.740562 18.1948 1.35625 16.6862 1.97193C9.2975 4.98877 3.66358 11.1148 1.04674 19.0571C0.246291 21.5198 0.184719 22.0124 0.184719 26.9071C0.153932 32.048 0.184719 32.2019 1.16988 35.0649C2.37055 38.4819 3.81752 41.2217 5.72628 43.5613C6.46515 44.454 7.08088 45.3775 7.08088 45.5622C7.08088 45.747 6.09571 48.7946 4.89504 52.3348C3.20179 57.2602 2.58606 58.7379 2.18584 58.7071C0.646515 58.5839 0 58.7994 0 59.3843C0 60 0.215505 60 15.3932 60C30.5709 60 30.7864 60 30.7864 59.3843C30.7864 59.0457 30.6017 58.7686 30.417 58.7686C30.2015 58.7379 25.5219 58.7379 20.0112 58.7686L10.0056 58.7994L12.4069 56.3983C14.6543 54.1202 15.1777 53.1967 14.4696 52.7657C14.2849 52.6426 12.7456 53.9047 11.0215 55.5055L7.91211 58.4608H6.24964C5.35684 58.4608 4.61796 58.3684 4.61796 58.2453C4.61796 57.6296 8.40469 46.7628 8.6202 46.7628C8.74335 46.7628 9.05121 46.9783 9.26671 47.2554C10.6213 48.8869 15.7627 51.6575 19.611 52.7965C23.1822 53.874 29.3087 54.0279 32.9415 53.1044C36.0817 52.3348 41.0075 49.9644 43.1934 48.1789C44.1785 47.3785 45.0713 46.7628 45.1329 46.8244C45.1945 46.9167 46.1181 49.5642 47.1956 52.7042L49.1351 58.4608H47.4727H45.7794L42.6084 55.5055C40.8536 53.9047 39.2835 52.6426 39.0988 52.7657C38.3599 53.2275 38.914 54.2434 41.0999 56.2136C42.3621 57.3526 43.4089 58.3684 43.4089 58.4916C43.4089 58.5839 41.4385 58.6763 39.0372 58.7071C36.6051 58.7071 34.5424 58.7379 34.4192 58.7379C34.2653 58.7686 34.1729 59.0457 34.1729 59.3843C34.1729 60 34.3884 60 43.8707 60C53.3529 60 53.5684 60 53.5684 59.3843C53.5684 58.8918 53.3529 58.7686 52.5524 58.7686C51.9983 58.7686 51.321 58.5839 51.0439 58.3684C50.7668 58.1837 49.6277 55.1669 48.4886 51.7191L46.4259 45.4699L47.0724 44.6387C51.5981 38.9744 53.63 33.4949 53.63 26.9071C53.63 22.5665 52.7987 18.9648 50.9207 15.1167C49.5661 12.3154 48.9196 11.5766 48.2731 12.223C48.0576 12.4385 48.427 13.4236 49.3814 15.3938C51.4133 19.5189 52.0906 22.3818 52.0906 26.9071C52.0598 34.9109 48.7965 41.745 42.67 46.6397C32.3257 54.8898 17.7022 53.9355 8.58941 44.4232C3.75594 39.3746 1.53932 33.8951 1.53932 26.9071C1.53932 24.5983 1.72404 22.7204 2.15505 20.9965C6.18807 4.1576 25.5527 -3.75392 40.2686 5.41975C42.3005 6.6819 42.4853 6.8666 42.085 7.32837C41.8388 7.60542 41.5309 8.59052 41.4077 9.51404C41.2538 10.807 40.9767 11.4534 40.2379 12.1923C39.7145 12.7464 39.1603 13.2081 39.0064 13.2081C38.8525 13.2081 38.2983 12.8387 37.7749 12.4077C35.1273 10.1913 30.9096 8.806 26.7842 8.806C16.2552 8.806 8.12762 17.364 8.71256 27.8306C9.45143 40.9446 23.2438 49.0101 34.9118 43.1303C39.3143 40.9446 42.5468 37.189 44.2093 32.2943C45.1021 29.7084 45.0405 23.921 44.0862 21.1812C43.3165 18.9648 41.7772 16.2865 41.2538 16.2865C40.5149 16.2865 40.6073 17.364 41.5309 19.1495C44.2709 24.5983 43.963 31.1245 40.7612 35.9268C35.7123 43.5613 25.4604 45.8393 18.0101 40.9754C8.09683 34.5107 7.4811 20.8734 16.7786 13.6391C20.9963 10.376 26.9381 9.36012 31.8947 11.0532C34.0498 11.7921 36.4203 13.085 37.2516 13.9777L37.8981 14.655L35.3736 17.1485L32.8799 19.6112L31.8024 18.8724C30.3862 17.9181 28.8777 17.5179 26.7226 17.5179C21.5197 17.5179 17.4251 21.6738 17.4251 26.9071C17.4251 29.8008 18.3487 31.8325 20.5038 33.8027C22.5972 35.7113 24.5368 36.4194 27.3383 36.2347C32.4489 35.9576 36.1741 32.0172 36.1741 26.9071C36.1741 24.4751 35.5891 22.6589 34.8195 22.8128C34.4808 22.9051 34.3577 23.1822 34.4192 23.8287C34.7271 27.0918 34.6039 29.0927 33.9574 30.3241C32.4797 33.0947 29.8013 34.757 26.8458 34.757C24.5676 34.757 23.059 34.1106 21.335 32.4482C17.9793 29.1851 18.0101 24.4751 21.4581 21.1504C23.0282 19.642 24.506 19.0571 26.8458 19.0571C28.6929 19.0571 31.0635 19.7959 31.4945 20.504C31.6177 20.6887 30.4478 22.0432 28.9085 23.5516C26.23 26.199 25.6759 27.2457 26.7226 27.6151C26.9381 27.6767 30.6017 24.2596 34.881 20.0114L42.6392 12.2846H44.1785C45.7178 12.2846 45.7794 12.2538 48.1192 9.88345C49.4122 8.59052 50.4897 7.35915 50.4897 7.17445C50.4897 6.6819 46.9801 3.35722 46.4567 3.35722C46.2104 3.35722 45.4716 3.91133 44.825 4.5578L43.6552 5.75838L41.4693 4.37309C37.0669 1.51017 31.6177 -0.0598221 26.3532 0.00174332C24.9986 0.0325279 23.5824 0.0940971 23.2438 0.155666ZM47.6574 6.22014L48.6426 7.23602L46.8569 8.99071C45.3176 10.4991 44.9174 10.7454 43.9014 10.7454H42.7008L42.8855 9.60639C43.0394 8.806 43.532 8.00562 44.7019 6.83582C45.5947 5.94308 46.3951 5.20426 46.4875 5.20426C46.5799 5.20426 47.1032 5.66602 47.6574 6.22014Z" fill="#E54750"/>
</svg>
