<svg width="58" height="60" viewBox="0 0 58 60" fill="none" xmlns="http://www.w3.org/2000/svg">
<path d="M28.2568 4.66206C28.2568 9.04043 28.2974 9.32422 29.0676 9.32422C29.8379 9.32422 29.8785 9.04043 29.8785 4.66206C29.8785 0.283678 29.8379 -0.000105858 29.0676 -0.000105858C28.2974 -0.000105858 28.2568 0.283678 28.2568 4.66206Z" fill="#E54750"/>
<path d="M8.39464 8.75663C7.90816 9.28365 8.31356 9.81068 11.0298 12.5674C14.1109 15.6891 14.2325 15.7296 14.8 14.9593C15.3676 14.1485 15.2055 13.9053 12.4082 11.108C10.7865 9.44582 9.32708 8.10798 9.16491 8.10798C9.00275 8.10798 8.67843 8.39176 8.39464 8.75663Z" fill="#E54750"/>
<path d="M45.5675 11.27C42.5675 14.3105 42.4458 14.4727 43.1756 15.1213C43.8648 15.77 44.0675 15.6078 47.108 12.5673C49.8242 9.81051 50.2296 9.28348 49.7431 8.75646C49.4594 8.39159 49.135 8.10781 48.9729 8.10781C48.8107 8.10781 47.3107 9.52673 45.5675 11.27Z" fill="#E54750"/>
<path d="M25.2189 13.1351C20.3541 14.3108 16.2189 17.6757 13.9487 22.2973C12.7324 24.7297 12.6514 25.2162 12.6514 29.1892C12.6514 33.1216 12.7324 33.6486 13.9081 36.0811C14.5973 37.5405 15.8541 39.527 16.7054 40.5405C18.4081 42.5676 19.7054 45.1216 19.746 46.4595C19.746 46.9459 20.0297 47.5541 20.3541 47.8378C20.8406 48.2432 20.9622 49.2973 20.9622 52.5405V56.7568H22.3811C23.7595 56.7568 23.8 56.7973 23.8 58.3784V60H28.8676H33.9352V58.3784C33.9352 56.7973 33.9757 56.7568 35.3541 56.7568H36.773V52.9054C36.773 49.7838 36.9352 48.8108 37.5838 47.7568C38.0297 47.027 38.3946 46.0946 38.3946 45.6892C38.3946 44.6351 39.4892 42.6081 41.273 40.5C43.3 38.0676 44.6784 35.2297 45.2865 32.2297C46.9892 23.8378 41.273 15.1622 32.7189 13.2162C29.4757 12.4459 28.0162 12.4459 25.2189 13.1351ZM34.827 15.973C41.4352 18.8919 45.0027 26.3513 43.0973 33C42.327 35.6757 41.7595 36.6486 39.5297 39.3649C37.827 41.4324 36.4081 44.3108 36.3676 45.6486C36.3676 47.2703 35.6784 47.4324 29.0297 47.4324C22.0568 47.4324 22.1379 47.473 21.4081 44.7973C20.9622 43.1351 19.7054 41.0676 17.1514 37.7027C14.1514 33.8108 13.5838 27.5676 15.773 23.1081C17.6784 19.2162 21.5297 16.054 25.7054 15C28.0568 14.4324 32.4352 14.8784 34.827 15.973ZM34.746 50.473V51.4865H28.8676H22.9892V50.473V49.4595H28.8676H34.746V50.473ZM34.746 53.9189C34.746 54.6892 34.4622 54.7297 28.8676 54.7297C24.246 54.7297 22.9892 54.6081 22.9892 54.2027C22.9892 53.8784 23.1108 53.5135 23.273 53.3919C23.3946 53.2297 26.0703 53.1081 29.1514 53.1081C34.4622 53.1081 34.746 53.1486 34.746 53.9189ZM31.9081 57.3649C31.9081 57.8514 31.3 57.973 28.8676 57.973C26.4352 57.973 25.827 57.8514 25.827 57.3649C25.827 56.8784 26.4352 56.7568 28.8676 56.7568C31.3 56.7568 31.9081 56.8784 31.9081 57.3649Z" fill="#E54750"/>
<path d="M0.202703 28.9865L0 30H4.58108H9.2027V28.9865V27.973H4.78378C0.405405 27.973 0.364865 27.973 0.202703 28.9865Z" fill="#E54750"/>
<path d="M48.9307 28.9865V30H53.3901H57.8496V28.9865V27.973H53.3901H48.9307V28.9865Z" fill="#E54750"/>
<path d="M11.0279 45.8106C7.98737 48.8917 7.82521 49.0944 8.5144 49.743C9.16304 50.4322 9.36575 50.2701 12.4874 47.189C15.609 44.0673 15.6901 43.9052 14.9603 43.2565C14.2712 42.6079 14.0684 42.7701 11.0279 45.8106Z" fill="#E54750"/>
<path d="M43.1336 43.297C42.485 43.9862 42.6472 44.1889 45.6066 47.1484C48.6472 50.1484 48.8093 50.27 49.458 49.5402C50.1066 48.8511 49.9445 48.6484 46.985 45.6889C43.9445 42.6889 43.7823 42.5673 43.1336 43.297Z" fill="#E54750"/>
</svg>
