<svg width="65" height="60" viewBox="0 0 65 60" fill="none" xmlns="http://www.w3.org/2000/svg">
<path d="M29.9726 0.922503C29.9005 1.04264 29.8284 3.10895 29.8284 5.51163C29.8044 10.0287 29.8524 10.2689 30.8375 10.293C31.6785 10.293 31.7746 9.81243 31.7746 5.4876C31.7746 2.50827 31.6785 1.16277 31.4863 0.970557C31.1499 0.634182 30.1888 0.586128 29.9726 0.922503Z" fill="#E54750"/>
<path d="M33.7189 0.994584C33.5267 1.23485 33.4546 2.58036 33.5027 5.60774C33.5748 9.37995 33.6228 9.90854 34.0073 10.1488C34.2956 10.341 34.5359 10.341 34.8482 10.1488C35.2086 9.90854 35.2567 9.40398 35.2567 5.34344V0.802369L34.632 0.730289C34.2956 0.682236 33.8871 0.802369 33.7189 0.994584Z" fill="#E54750"/>
<path d="M11.1594 8.66032C10.4866 9.33307 10.9191 9.98179 13.8263 12.889C15.4361 14.4988 16.9498 15.8203 17.1661 15.8203C17.6226 15.8203 18.3194 15.1956 18.3194 14.8112C18.3194 14.3787 12.2646 8.37199 11.8321 8.37199C11.6159 8.37199 11.3275 8.49213 11.1594 8.66032Z" fill="#E54750"/>
<path d="M49.8414 11.5675C48.2316 13.2014 46.9102 14.715 46.9102 14.9313C46.9102 15.3638 47.5349 16.0605 47.9433 16.0605C48.3758 16.0605 54.3585 9.98176 54.3585 9.54927C54.3585 9.35706 54.2383 9.06874 54.0702 8.90055C53.3974 8.2278 52.7487 8.63626 49.8414 11.5675Z" fill="#E54750"/>
<path d="M27.0188 9.86149C26.8506 10.0297 26.7305 10.3661 26.7305 10.6303C26.7305 11.3031 31.8962 17.0215 32.4969 17.0215C33.0976 17.0215 38.2633 11.3031 38.2633 10.6544C38.2633 10.0537 37.8309 9.57317 37.2782 9.57317C37.038 9.57317 35.9087 10.6303 34.7795 11.9038C33.6262 13.2012 32.593 14.2584 32.4969 14.2584C32.4008 14.2584 31.3676 13.2012 30.2144 11.9038C28.1961 9.64525 27.6195 9.26082 27.0188 9.86149Z" fill="#E54750"/>
<path d="M8.51851 11.3029C7.84576 11.9756 8.25421 12.6244 11.1855 15.5316C12.8193 17.1414 14.333 18.4629 14.5492 18.4629C14.9817 18.4629 15.6785 17.8382 15.6785 17.4297C15.6785 16.9973 9.59972 11.0146 9.16723 11.0146C8.97502 11.0146 8.6867 11.1347 8.51851 11.3029Z" fill="#E54750"/>
<path d="M52.486 14.2101C50.8762 15.8199 49.5547 17.3336 49.5547 17.5498C49.5547 18.0063 50.1794 18.7031 50.5638 18.7031C50.9963 18.7031 57.003 12.6484 57.003 12.2159C57.003 11.6873 56.5225 11.2548 55.9218 11.2548C55.6094 11.2548 54.3601 12.336 52.486 14.2101Z" fill="#E54750"/>
<path d="M19.4724 13.1046C19.16 13.465 19.136 14.0176 19.3042 16.6606C19.4003 18.3665 19.4724 19.8081 19.4484 19.8321C19.4243 19.8561 17.9827 19.7841 16.2768 19.6879C13.4657 19.4957 13.1053 19.5198 12.6968 19.9042C12.1442 20.4328 12.3605 21.2977 13.1053 21.4659C13.9702 21.6341 20.5776 21.9945 20.914 21.8744C21.0822 21.8263 21.2984 21.5861 21.3945 21.3698C21.6588 20.8412 21.2264 13.3929 20.914 13.0085C20.5536 12.576 19.9049 12.6241 19.4724 13.1046Z" fill="#E54750"/>
<path d="M44.0759 12.9847C43.7636 13.3691 43.307 20.8655 43.5713 21.37C43.6915 21.5863 43.9077 21.8266 44.0759 21.8746C44.5805 22.0668 51.5482 21.5863 52.1489 21.346C52.7736 21.0817 52.8457 20.3609 52.2691 19.8564C51.9087 19.544 51.356 19.52 48.7131 19.6882C47.0072 19.7843 45.5656 19.8564 45.5415 19.8323C45.5175 19.8083 45.5896 18.3667 45.6857 16.6608C45.8539 14.0178 45.8299 13.4652 45.5175 13.1048C45.085 12.6243 44.4363 12.5762 44.0759 12.9847Z" fill="#E54750"/>
<path d="M29.7346 19.8796C28.4131 20.4803 27.2358 21.7057 26.563 23.2194C25.5779 25.3097 25.7942 28.8897 26.9955 31.2684C29.182 35.5211 33.699 36.4101 36.6543 33.1424C38.3362 31.2924 39.033 29.2501 39.0089 26.1747C39.0089 23.0992 37.4472 20.6725 34.8763 19.7835C33.4828 19.279 30.9119 19.327 29.7346 19.8796ZM34.8042 21.7297C38.0238 23.2674 38.0238 29.5144 34.8042 32.3496C33.1464 33.7912 31.2483 33.5749 29.6385 31.7729C28.3891 30.3313 27.8124 28.6735 27.8124 26.3909C27.8124 24.8532 27.9326 24.3967 28.4852 23.4356C29.7586 21.2732 32.3535 20.5764 34.8042 21.7297Z" fill="#E54750"/>
<path d="M9.47973 27.401C8.87906 28.0016 9.23946 28.5542 11.546 30.5965C12.8195 31.7498 13.8766 32.783 13.8766 32.8791C13.8766 32.9752 12.8195 34.0083 11.546 35.1616C10.2486 36.2909 9.19141 37.4201 9.19141 37.6604C9.19141 38.213 9.67194 38.6455 10.2726 38.6455C10.9213 38.6455 16.6397 33.4797 16.6397 32.8791C16.6397 32.2784 10.9213 27.1126 10.2726 27.1126C9.98429 27.1126 9.64792 27.2328 9.47973 27.401Z" fill="#E54750"/>
<path d="M51.3108 29.7556C49.5088 31.3894 48.3555 32.5907 48.3555 32.8791C48.3555 33.4797 54.0739 38.6455 54.7226 38.6455C55.3232 38.6455 55.8038 38.213 55.8038 37.6604C55.8038 37.4201 54.7466 36.2909 53.4732 35.1616C52.1757 34.0083 51.1186 32.9752 51.1186 32.8791C51.1186 32.783 52.1757 31.7498 53.4732 30.5965C55.7557 28.5542 56.1161 28.0016 55.5155 27.401C54.8908 26.7763 54.17 27.1847 51.3108 29.7556Z" fill="#E54750"/>
<path d="M0.466024 30.1394C0.177702 30.4278 0.273809 31.3648 0.634212 31.6531C0.850453 31.8453 2.29206 31.9174 5.22334 31.8694C8.99555 31.7973 9.52414 31.7492 9.76441 31.3648C9.95662 31.0765 9.95662 30.8362 9.76441 30.5239C9.52414 30.1635 8.97152 30.1154 5.05515 30.0433C2.62844 30.0193 0.562131 30.0674 0.466024 30.1394Z" fill="#E54750"/>
<path d="M55.7508 30.164C55.1982 30.3081 54.9339 31.3413 55.3183 31.7978C55.5586 32.0861 56.3996 32.1582 59.8594 32.1582C64.3765 32.1582 64.6888 32.0861 64.6888 31.0289C64.6888 30.6445 64.4966 30.3802 64.0641 30.2361C63.4634 29.9958 56.5677 29.9477 55.7508 30.164Z" fill="#E54750"/>
<path d="M0.536746 33.9357C0.392585 34.1279 0.296478 34.5364 0.344531 34.8487C0.416612 35.4014 0.416612 35.4014 5.02976 35.4734L9.66694 35.5215L9.8111 34.9208C10.1235 33.6954 9.76305 33.5993 5.10184 33.5993C1.66601 33.5993 0.777014 33.6714 0.536746 33.9357Z" fill="#E54750"/>
<path d="M55.3704 34.1274C55.2022 34.2956 55.082 34.6079 55.082 34.8242C55.082 35.6892 55.6106 35.7853 60.1517 35.7132C64.5726 35.6411 64.5726 35.6411 64.6447 35.0885C64.8129 33.9352 64.4765 33.8391 59.9114 33.8391C56.9321 33.8391 55.5626 33.9352 55.3704 34.1274Z" fill="#E54750"/>
<path d="M26.9699 35.1366C25.24 35.5932 23.7263 36.4581 22.573 37.6595C21.2756 39.005 20.5788 40.2303 20.2424 41.8882L19.9781 43.1376L17.8878 43.546C14.9565 44.1227 11.6648 45.2519 10.3193 46.165C8.82967 47.1741 8.08484 48.6157 8.44524 49.769C8.9498 51.3067 11.4005 53.0847 12.3136 52.5801C13.1305 52.1476 12.9142 51.2587 11.785 50.4898C10.3914 49.5527 10.1752 49.1203 10.7518 48.4956C11.6889 47.4384 14.2357 46.4293 17.9118 45.6364L20.0021 45.1799V47.1741C20.0021 48.6878 20.0983 49.2885 20.3866 49.5527C20.8191 50.0093 20.8671 50.0093 21.4678 49.6969C21.8762 49.4566 21.9243 49.1443 21.9243 45.7805C21.9243 42.4408 21.9723 42.0323 22.5009 40.9271C23.1977 39.4375 24.327 38.2842 25.7686 37.5874C27.6187 36.6503 28.0031 36.6263 29.3966 37.4913C30.5259 38.2121 30.8382 38.2842 32.4961 38.2842C34.1539 38.2842 34.4663 38.2121 35.5956 37.4913C36.9891 36.6263 37.3735 36.6503 39.2236 37.5874C40.6892 38.3082 41.8185 39.4855 42.4913 40.9271C43.0198 42.0323 43.0679 42.4648 43.0679 45.7805C43.0679 49.1443 43.116 49.4566 43.5244 49.6969C44.1491 50.0093 44.7258 49.769 44.8699 49.1203C44.942 48.856 45.0141 47.8468 45.0381 46.9098L45.1102 45.2039L47.5129 45.7325C51.3091 46.5974 53.7598 47.6787 54.4566 48.7839C54.817 49.3605 53.9521 50.2015 52.2462 50.9703C46.1674 53.6854 32.0636 54.5984 20.6268 53.0126C18.6326 52.7483 18.4885 52.7483 18.1761 53.1808C17.7676 53.7334 17.7676 53.8295 18.1521 54.3341C18.9209 55.3913 29.8291 56.1842 37.2534 55.7517C48.4019 55.0789 55.1294 53.0607 56.4508 49.9852C57.5321 47.4384 54.2644 45.1078 47.5369 43.6421L45.0141 43.0895L44.7498 41.9362C44.3654 40.1102 43.8848 39.1972 42.6114 37.8517C41.2419 36.4101 39.3918 35.4009 37.4216 34.9925C36.1482 34.7522 36.1001 34.7522 35.2832 35.473C33.7695 36.7945 31.4389 36.8185 29.8531 35.5451C28.844 34.7282 28.5797 34.6801 26.9699 35.1366Z" fill="#E54750"/>
<path d="M16.6375 39.8705C8.90084 41.4323 4.69615 42.994 2.02917 45.2766C-0.709889 47.6072 -0.613782 50.8028 2.26944 53.0853C9.09306 58.4673 29.0113 60.9901 45.9502 58.5874C51.0199 57.8907 51.8128 57.6504 51.9089 56.8815C52.053 55.7283 51.5725 55.6321 48.3048 56.1607C42.2501 57.1699 40.9286 57.266 32.4952 57.266C23.8215 57.266 21.0104 57.0497 15.3881 55.9205C6.93064 54.2386 1.4285 51.2352 2.07722 48.6644C2.67789 46.2857 7.91574 43.7148 15.2439 42.2492C16.5654 41.9849 17.8629 41.7687 18.1031 41.7687C18.3434 41.7687 18.7278 41.5044 18.9441 41.168C19.3285 40.5913 19.3285 40.5193 18.92 40.0868C18.4395 39.5582 18.2713 39.5582 16.6375 39.8705Z" fill="#E54750"/>
<path d="M46.093 40.063C45.6845 40.4954 45.6845 40.6156 45.9969 41.0721C46.2612 41.5046 46.958 41.7208 49.7931 42.2975C57.2414 43.7871 62.3111 46.2619 62.9118 48.6405C63.2482 49.938 61.8786 51.5478 59.3558 52.8452C58.3947 53.3498 58.0103 54.0946 58.4428 54.6232C59.0435 55.368 60.5091 54.8395 62.7196 53.0855C65.6028 50.803 65.6989 47.6554 62.9358 45.2287C60.8455 43.3787 56.5206 41.6247 51.2347 40.4954C46.8138 39.5344 46.5976 39.5103 46.093 40.063Z" fill="#E54750"/>
<path d="M24.2301 44.0745C24.158 44.2908 24.0859 45.5642 24.0859 46.9337C24.0859 49.2643 24.134 49.4565 24.6145 49.7208C25.047 49.9611 25.1912 49.9131 25.5756 49.4565C25.912 49.0241 26.0081 48.4955 26.0081 46.7655C26.0081 45.5882 25.8879 44.4109 25.7678 44.1466C25.4555 43.594 24.4463 43.5459 24.2301 44.0745Z" fill="#E54750"/>
<path d="M39.3908 43.8348C39.2947 43.9309 39.2227 45.2284 39.2227 46.694C39.2227 49.6733 39.4389 50.226 40.424 49.6974C40.8805 49.4571 40.9045 49.2649 40.8565 46.6219C40.7844 43.8108 40.7844 43.8108 40.1837 43.7387C39.8474 43.6907 39.487 43.7387 39.3908 43.8348Z" fill="#E54750"/>
</svg>
