<svg width="88" height="60" viewBox="0 0 88 60" fill="none" xmlns="http://www.w3.org/2000/svg">
<path d="M43.6248 1.00065C43.4492 1.19822 43.3833 2.62515 43.4272 5.63269C43.4931 9.49638 43.537 10.0013 43.8882 10.2208C44.1517 10.3964 44.3712 10.3964 44.6566 10.2208C44.9859 10.0013 45.0298 9.49638 45.0956 5.63269C45.1615 1.15431 45.0737 0.693306 44.2614 0.693306C44.0419 0.693306 43.7565 0.825023 43.6248 1.00065Z" fill="#E54750"/>
<path d="M31.4831 3.12996C30.6269 3.61292 31.044 4.2715 34.1394 7.36685C36.5981 9.80361 37.2786 10.3744 37.6957 10.3085C38.0909 10.2646 38.2446 10.089 38.2885 9.60604C38.3543 9.05722 38.0031 8.61816 35.3248 5.93992C33.6564 4.24955 32.1856 2.88848 32.0758 2.88848C31.9441 2.88848 31.6807 2.99824 31.4831 3.12996Z" fill="#E54750"/>
<path d="M53.2195 5.91796C50.4973 8.61816 50.168 9.03526 50.2339 9.60604C50.2778 10.089 50.4315 10.2646 50.8266 10.3085C51.2437 10.3744 51.9243 9.80361 54.383 7.36685C57.5222 4.24955 57.9174 3.59097 57.0173 3.10801C56.7758 2.99824 56.5124 2.88848 56.4246 2.88848C56.3368 2.88848 54.8879 4.24955 53.2195 5.91796Z" fill="#E54750"/>
<path d="M74.7784 11.0112C73.7686 11.3186 67.2047 13.909 66.612 14.2163C65.69 14.6993 65.229 15.5555 65.229 16.8068V17.9044L62.3751 18.7386L59.5212 19.5509L53.4842 18.1239C48.2595 16.8726 47.2277 16.697 45.8007 16.7629C42.9688 16.8946 42.3322 17.3336 37.4806 22.5365C32.9584 27.388 32.7169 27.7612 33.3535 29.2979C33.7487 30.2419 35.1097 31.2737 36.6245 31.7786C38.0514 32.2396 40.9492 32.1298 42.0688 31.5591C43.2103 30.9663 49.2473 26.4221 49.401 26.027C49.5986 25.522 49.1376 24.8415 48.6327 24.8415C48.3912 24.8415 46.7228 25.9611 44.9007 27.3222C43.1006 28.7052 41.2346 29.9345 40.7736 30.0663C38.4466 30.7688 35.0439 29.6931 35.0439 28.2661C35.0439 27.6076 42.4859 19.7045 43.6494 19.1118C45.4056 18.2118 46.4374 18.2996 53.0671 19.8802C56.404 20.6705 59.3017 21.3291 59.4993 21.3291C59.7188 21.3291 61.2775 20.9339 62.9678 20.429C64.6582 19.946 66.0851 19.5728 66.1071 19.6167C66.3486 19.8363 73.6369 38.562 73.5491 38.6937C73.5052 38.7815 73.0661 38.9132 72.6051 39.0011C71.5733 39.1767 70.9587 39.7694 71.1343 40.3841C71.3538 41.0427 71.8368 41.1305 73.1759 40.7353C73.8345 40.5378 74.3833 40.428 74.4272 40.4719C74.4492 40.4938 74.5809 40.8012 74.7345 41.1305C75.0858 41.9647 76.0298 42.5135 77.0835 42.4916C78.2689 42.4916 86.0841 39.2864 86.9183 38.4522C87.8843 37.5302 87.9062 36.4984 87.0281 34.391C86.3915 32.8762 86.2159 32.6347 85.7109 32.5689C84.6572 32.4372 84.5474 33.1397 85.3158 35.0715C85.9744 36.696 85.9744 36.7838 85.6012 37.157C85.0084 37.7058 77.6104 40.6695 76.9737 40.6036C76.4688 40.5378 76.0737 39.6596 71.6611 28.5735C67.556 18.2337 66.9413 16.5433 67.1828 16.1921C67.5121 15.6872 75.0638 12.7016 75.7444 12.8114C76.0956 12.8553 76.6225 13.9529 78.5324 18.585C82.9449 29.276 82.901 29.2101 83.362 29.3418C83.8889 29.5174 84.4377 29.1003 84.4377 28.5515C84.4377 28.2003 83.1864 25.061 79.6081 16.3897C77.6323 11.604 77.6762 11.6698 76.6664 11.2088C75.6785 10.7698 75.5687 10.7478 74.7784 11.0112Z" fill="#E54750"/>
<path d="M13.3963 11.4278C12.8256 11.7791 11.9914 13.2499 8.72038 19.704C4.46154 28.0461 4.24201 28.6827 5.51528 28.6827C6.15191 28.6827 6.26167 28.5071 10.1473 20.8895C12.3426 16.6087 14.2744 13.0084 14.4501 12.8986C14.8452 12.6572 22.8141 16.477 23.0336 17.0038C23.1873 17.4209 12.0353 40.164 11.4864 40.5153C11.2011 40.7128 10.3449 40.3616 7.13978 38.781C4.92255 37.6834 3.01266 36.5857 2.83703 36.3223C2.55165 35.9052 2.59555 35.7076 3.31999 34.2807C4.13225 32.6781 4.17615 31.9976 3.47366 31.822C2.79313 31.6463 2.55165 31.8878 1.67353 33.644C0.0270748 36.8931 0.290508 37.3102 6.0641 40.2299C11.2011 42.8423 11.7718 42.952 13.089 41.5471L13.9012 40.6909L15.6136 41.7007C17.4796 42.7984 18.0284 42.7764 18.0284 41.6349C18.0284 41.086 17.8088 40.8885 16.338 40.0104C15.394 39.4615 14.6257 38.9566 14.6257 38.8908C14.6257 38.759 22.836 22.1627 23.341 21.2407C23.4946 20.9553 23.8239 21.0431 25.5801 21.8993C26.6997 22.4262 27.7315 22.8652 27.8632 22.8652C27.9949 22.8652 29.6414 21.9432 31.5074 20.8017C35.2174 18.5625 36.337 18.1454 37.9176 18.3429C38.7079 18.4527 39.0372 18.4088 39.3006 18.1454C40.1787 17.2453 39.2787 16.4989 37.3468 16.4989C35.5028 16.5209 34.2954 17.0038 30.783 19.1113L27.7315 20.9553L26.0192 20.0992C25.0533 19.6382 24.2849 19.243 24.2849 19.1991C24.2849 19.1772 24.4386 18.804 24.6362 18.3868C25.0752 17.4648 24.9216 16.3013 24.2191 15.511C23.5824 14.8085 15.6136 11.0107 14.7355 11.0107C14.3842 11.0107 13.7695 11.2083 13.3963 11.4278Z" fill="#E54750"/>
<path d="M51.3322 25.7636C51.1785 25.9173 51.0687 26.2027 51.0687 26.4002C51.0687 26.6198 54.186 29.4297 58.4888 33.0958C67.8626 41.1086 68.1261 41.3721 68.4334 42.4477C69.1578 45.1479 66.0186 47.6066 63.6916 46.1797C63.3404 45.9602 61.4085 44.4674 59.4547 42.8868C57.479 41.2842 55.7227 39.989 55.5691 39.989C55.108 39.989 54.5373 40.6696 54.669 41.0208C54.7349 41.1964 54.8007 41.3721 54.8007 41.416C54.8007 41.4379 56.2276 42.6234 57.9839 44.0283C61.7378 47.0578 62.0451 47.4091 62.0451 48.6604C62.0451 49.8239 61.4305 50.6581 60.3548 50.9435C59.2352 51.2508 58.7742 51.0093 54.3617 47.7823C49.9711 44.5772 49.6857 44.4235 49.2027 44.8186C48.3905 45.4992 48.7856 46.0041 51.8371 48.2213C53.4835 49.4068 54.9544 50.5703 55.13 50.8337C56.3374 52.5241 54.3177 55.0486 52.3859 54.2803C52.0786 54.1705 50.3004 52.8314 48.4344 51.2947C45.7781 49.1214 44.9219 48.5506 44.4829 48.5945C44.0658 48.6384 43.9121 48.8141 43.8682 49.2531C43.8024 49.758 44.1097 50.0873 46.1952 51.8216C47.5124 52.9192 48.6539 54.0388 48.7417 54.3023C49.0271 55.3779 48.8735 56.0146 48.149 56.8268C47.0953 57.9464 46.1733 57.9245 44.0438 56.6732C42.3096 55.6414 41.8047 55.6414 41.6729 56.739C41.6071 57.2 41.7827 57.4196 42.5071 57.8806C45.0756 59.5051 46.305 59.8124 47.8636 59.2197C49.071 58.7587 50.3443 57.3976 50.5419 56.3658C50.6077 55.9268 50.6955 55.5755 50.7394 55.5755C50.7614 55.5755 51.1565 55.7292 51.5736 55.9048C52.0127 56.0804 52.7811 56.2341 53.264 56.2341C55.1959 56.2341 57.2155 54.4998 57.2155 52.8314C57.2155 52.5241 57.2375 52.2826 57.2814 52.2826C57.3033 52.2826 57.7204 52.4363 58.2034 52.6119C59.4767 53.0729 60.2889 53.007 61.5622 52.3704C62.8354 51.7338 63.7135 50.5264 63.955 49.1214L64.0867 48.3311H65.2722C68.1919 48.3311 70.2555 46.2456 70.2774 43.2819C70.2774 40.8452 70.1677 40.7354 60.8377 32.7007C55.9203 28.4638 52.32 25.5221 52.0566 25.5002C51.7932 25.5002 51.4858 25.6099 51.3322 25.7636Z" fill="#E54750"/>
<path d="M6.94443 33.2717C6.26389 34.1059 7.40544 36.0378 8.81042 36.389C10.1934 36.7403 11.8619 35.3572 11.7301 33.9742C11.5984 32.7229 10.3032 32.6351 10.0178 33.8645C9.93001 34.2157 9.71048 34.4133 9.33728 34.4572C8.89823 34.5011 8.7226 34.3694 8.48112 33.7986C8.10793 32.9863 7.40544 32.7449 6.94443 33.2717Z" fill="#E54750"/>
<path d="M76.9949 33.6665C76.4461 35.1813 78.1584 36.9375 79.8927 36.6082C80.683 36.4545 81.6709 35.5764 81.8904 34.7861C82.2856 33.4909 80.683 32.8104 80.2001 34.0617C80.0683 34.4129 79.8049 34.7642 79.6512 34.83C79.2561 34.9837 78.7292 34.5666 78.7292 34.0836C78.7292 33.1397 77.3242 32.8104 76.9949 33.6665Z" fill="#E54750"/>
<path d="M21.2768 40.8894C20.5743 41.087 18.7961 42.8871 18.2473 43.9628C18.0716 44.2921 17.8741 44.9287 17.8082 45.3898C17.5448 47.146 19.2571 49.2095 20.9694 49.2095C21.7378 49.2095 21.7817 49.2534 22.0231 50.1535C22.4842 51.8219 23.8013 52.9415 25.36 52.9415C25.9088 52.9415 26.0625 53.0513 26.1503 53.5342C26.3918 54.6758 27.1382 55.9051 27.9504 56.454C28.6309 56.915 29.0041 57.0028 30.3213 56.9808C31.8361 56.9808 31.9019 57.0028 32.1214 57.5516C32.7581 59.22 35.4802 60.0542 37.2145 59.0883C38.2463 58.4956 40.4855 55.51 40.7489 54.3685C41.1879 52.4366 39.9147 50.373 38.0048 49.8901C37.4779 49.7584 36.9071 49.7145 36.7315 49.7803C36.512 49.8681 36.3803 49.6486 36.2705 48.99C36.0949 47.8924 34.8875 46.4874 33.7899 46.1142C33.3508 45.9825 32.5385 45.9166 31.9678 45.9825C30.9579 46.1142 30.8921 46.0922 30.6506 45.4556C30.0798 44.0945 28.2358 43.1286 26.6771 43.3701C25.9966 43.4799 25.821 43.436 25.821 43.1725C25.821 42.6018 24.2843 41.109 23.4501 40.8675C22.5061 40.604 22.2207 40.626 21.2768 40.8894ZM23.6257 43.0628C24.2843 43.7213 24.1965 44.7751 23.3623 45.9386C22.4403 47.1899 22.111 47.4314 21.3426 47.4533C20.4645 47.4533 19.6742 46.685 19.6742 45.8069C19.6742 45.1263 20.6401 43.5018 21.3865 42.8871C21.9134 42.47 23.1208 42.5578 23.6257 43.0628ZM27.9065 45.3459C29.4212 45.9825 29.5091 47.2557 28.148 49.1437C27.5992 49.8901 26.9406 50.6365 26.6552 50.8341C25.0746 51.9536 23.033 50.1096 23.933 48.3753C24.7233 46.8606 26.26 45.2361 27.0942 45.0605C27.1162 45.0385 27.4894 45.1702 27.9065 45.3459ZM33.8557 48.4192C34.3167 48.8803 34.6021 49.3852 34.6021 49.7145C34.6021 50.5706 31.7921 54.6099 30.914 55.049C29.531 55.7076 28.0163 54.7636 28.0163 53.2269C28.0163 52.5464 28.3016 52.0195 29.553 50.3072C31.6824 47.4314 32.4946 47.0582 33.8557 48.4192ZM38.4438 52.1732C39.3439 53.0513 39.1902 53.9294 37.7853 55.8612C36.2486 57.9687 35.3046 58.298 34.1411 57.1345C33.2191 56.1905 33.3069 55.488 34.6021 53.644C35.1948 52.7878 35.8754 51.9975 36.0729 51.8658C36.7974 51.4487 37.8731 51.5804 38.4438 52.1732Z" fill="#E54750"/>
</svg>
