<svg width="53" height="60" viewBox="0 0 53 60" fill="none" xmlns="http://www.w3.org/2000/svg">
<path d="M26.575 0.947086C21.095 1.8189 17.1562 6.44264 17.1562 12.0005C17.1562 14.4602 17.6233 15.9081 19.3514 18.7882C20.9237 21.3881 22.2937 24.7352 22.2937 25.9495C22.2937 26.2765 22.4183 26.6034 22.6051 26.7902C22.9009 27.086 23.1188 27.1016 28.2096 27.1016C33.3004 27.1016 33.5184 27.086 33.8142 26.7902C33.9854 26.619 34.1255 26.292 34.1255 26.0741C34.1255 24.7663 35.4177 21.6216 37.1769 18.6169C38.8582 15.768 39.2786 14.4135 39.2786 12.0005C39.2786 10.1323 38.9672 8.70002 38.1732 7.0965C36.3985 3.45356 32.8334 1.10277 28.7545 0.869246C28.0695 0.838108 27.0887 0.869246 26.575 0.947086ZM30.9341 3.46912C32.8489 4.10742 34.2968 5.16605 35.48 6.81627C36.523 8.27968 36.9434 9.55627 37.0523 11.4867C37.1457 13.604 36.8499 14.8027 35.7446 16.702C34.359 19.0528 32.7867 22.3221 32.413 23.6766L32.0394 24.922H28.1785C24.7691 24.922 24.3176 24.8909 24.3176 24.6729C24.3176 23.7855 22.5895 19.9091 21.095 17.4182C19.834 15.3476 19.4603 14.2734 19.3825 12.3897C19.2268 9.12036 20.5968 6.3648 23.2745 4.57446C25.563 3.04878 28.412 2.62844 30.9341 3.46912Z" fill="#E54750"/>
<path d="M30.0495 12.2658L26.9826 15.3327L25.597 13.9783C24.4605 12.8729 24.118 12.6238 23.7288 12.6238C23.1061 12.6238 22.5457 13.2933 22.6858 13.8693C22.7325 14.0872 23.6043 15.0836 24.6006 16.08C26.2197 17.7146 26.4688 17.917 26.9514 17.917C27.4496 17.917 27.7765 17.6368 30.9057 14.5231C32.7739 12.6705 34.4086 10.958 34.5331 10.7245C34.9068 10.0239 34.393 9.19883 33.599 9.19883C33.1787 9.19883 32.7116 9.60361 30.0495 12.2658Z" fill="#E54750"/>
<path d="M23.1053 28.8452C22.5293 29.141 22.4047 30.0283 22.8718 30.5577C23.1053 30.8223 23.5723 30.8379 28.305 30.8379C33.4425 30.8379 33.4892 30.8379 33.8162 30.4954C34.2054 30.0751 34.2209 29.5769 33.8317 29.1098L33.5359 28.7362L28.4919 28.7051C25.0513 28.6895 23.3544 28.7206 23.1053 28.8452Z" fill="#E54750"/>
<path d="M25.2883 32.3474C24.9925 32.472 24.6188 33.2815 24.7434 33.5929C25.0236 34.4024 25.1014 34.418 28.3085 34.418H31.3131L31.6245 34.0132C32.0448 33.4683 32.0293 33.0947 31.5622 32.6276C31.1886 32.2384 31.1574 32.2384 28.3396 32.254C26.7672 32.254 25.3972 32.3007 25.2883 32.3474Z" fill="#E54750"/>
<path d="M47.3302 33.1107C46.7697 33.282 45.7578 34.0604 42.5041 36.8626C40.2623 38.7931 37.5534 41.1283 36.4948 42.0313C35.4361 42.9342 34.5176 43.6971 34.4398 43.7282C34.3464 43.7593 34.2841 43.3857 34.2841 42.8719C34.2685 41.3463 33.4278 39.9451 32.0267 39.1979C31.4196 38.8554 31.2794 38.8554 22.6703 38.8087L13.9365 38.762L7.33564 43.0743C3.70826 45.4407 0.594632 47.4957 0.438951 47.6514C-0.214911 48.2897 0.283269 49.5195 1.18622 49.5195C1.35747 49.5195 4.45553 47.5891 8.05177 45.2383L14.5904 40.9571L22.7948 40.9882L30.9992 41.0349L31.4818 41.5019C32.0578 42.0624 32.2914 42.8408 32.2291 44.1174L32.1824 45.0826L26.0641 45.1605L19.9303 45.2383L19.6345 45.6119C19.2453 46.0946 19.2608 46.5927 19.6967 46.9975C20.0548 47.34 20.0859 47.34 26.8581 47.34H33.6458L34.5487 46.5927C35.0469 46.1724 38.145 43.5102 41.4454 40.6613C44.7459 37.8123 47.6727 35.3681 47.9685 35.2436C48.7002 34.9322 49.4786 35.1034 50.1013 35.7262C50.7708 36.3956 50.9109 37.174 50.5372 37.9368C50.3348 38.3105 47.5326 40.9415 42.3017 45.6431C35.3272 51.9326 34.2685 52.82 33.5991 53.0224C32.9608 53.2092 31.3884 53.2559 24.6785 53.2559H16.5364L12.1462 55.5911C9.71756 56.8833 7.647 58.0509 7.55359 58.191C7.21109 58.6269 7.3045 59.2808 7.75598 59.6233C7.9895 59.8101 8.26973 59.9502 8.39427 59.9502C8.51882 59.9502 10.496 58.9538 12.7689 57.724L16.9256 55.5133L25.4258 55.4354L33.926 55.3576L34.9691 54.8127C36.5259 54.0032 51.7827 40.2254 52.4365 39.0422C53.0437 37.9213 53.0593 36.4267 52.4521 35.2591C51.4713 33.3442 49.4008 32.4724 47.3302 33.1107Z" fill="#E54750"/>
</svg>
