<svg width="60" height="60" viewBox="0 0 60 60" fill="none" xmlns="http://www.w3.org/2000/svg">
<g clip-path="url(#clip0_22_4942)">
<path d="M27.0401 0.809032C26.2936 0.900917 25.8227 1.13063 25.3288 1.6245C24.766 2.1758 24.6626 2.48591 24.341 4.38101C24.1802 5.35727 24.008 6.18422 23.962 6.21868C23.9161 6.25314 23.5485 6.36799 23.1351 6.48285C21.6994 6.86187 20.3096 7.41317 18.5524 8.29755L16.7721 9.18193L15.3939 8.19418C14.6243 7.65436 13.8433 7.13752 13.6366 7.04564C13.0853 6.81593 12.0401 6.85038 11.4888 7.12603C10.4436 7.63139 7.20475 10.8703 6.71087 11.904C6.45819 12.4208 6.41225 13.3167 6.60751 13.9139C6.6879 14.1322 7.18178 14.9247 7.71011 15.6712C8.24993 16.4292 8.70934 17.1069 8.7438 17.1758C8.76677 17.2562 8.62895 17.5778 8.43369 17.8994C7.81348 18.9216 6.91761 20.9201 6.41225 22.4821C6.1366 23.3205 5.90689 24.09 5.90689 24.1704C5.90689 24.4231 5.84947 24.4346 4.23002 24.6988C2.11669 25.0433 1.76065 25.1812 1.1634 25.8473C0.497246 26.5824 0.382391 27.0648 0.313478 29.3504C0.244566 31.3833 0.393877 33.0946 0.692498 33.6804C0.933693 34.1628 1.50797 34.7715 1.90996 34.9897C2.08224 35.0816 3.01256 35.2884 3.96585 35.4492C4.93063 35.5985 5.75758 35.7593 5.81501 35.7937C5.86095 35.8282 5.90689 35.943 5.90689 36.0464C5.91838 36.77 7.59525 40.9277 8.43369 42.283C8.61746 42.5931 8.77826 42.8917 8.77826 42.9492C8.77826 42.9951 8.35329 43.6268 7.83645 44.3504C6.64196 46.0158 6.44671 46.4752 6.50414 47.3136C6.52711 47.6697 6.64196 48.1406 6.74533 48.3588C7.19326 49.2891 10.57 52.6544 11.4773 53.0793C12.0286 53.332 13.0968 53.3665 13.6481 53.1367C13.8548 53.0564 14.6473 52.5395 15.4054 51.9882L16.7951 51.0005L18.2078 51.7355C19.8732 52.6084 21.5386 53.2861 22.9054 53.6536C23.4452 53.7914 23.9161 53.9407 23.962 53.9752C24.008 54.0096 24.1802 54.8366 24.341 55.8129C24.6626 57.708 24.766 58.0181 25.3288 58.5694C25.8801 59.1322 26.2936 59.2815 27.5685 59.4193C28.8663 59.5571 29.4061 59.4652 29.9574 59.0288C30.6466 58.489 30.658 58.4201 30.6925 54.159C30.7155 52.0112 30.704 49.9897 30.658 49.6567C30.5202 48.5541 29.7966 47.842 28.6711 47.7386C25.3632 47.394 23.1006 46.6934 20.7002 45.2692C15.727 42.306 12.5455 37.1605 12.1205 31.3948C11.5118 23.2516 16.5884 15.7401 24.3755 13.2822C25.57 12.9147 27.0516 12.6276 28.6711 12.4553C29.6818 12.3519 30.3939 11.7662 30.6006 10.8473C30.7384 10.2845 30.7384 2.99127 30.6121 2.31363C30.4054 1.26845 29.6129 0.69418 28.4184 0.705666C28.0049 0.717148 27.3847 0.763092 27.0401 0.809032ZM28.6481 6.5977V10.5372L27.6489 10.6061C26.4773 10.698 24.6167 11.1 23.3074 11.5479C18.3227 13.2593 14.1534 17.015 11.9368 21.77C8.23844 29.6835 10.191 39.0326 16.7262 44.7983C19.7469 47.4744 23.9161 49.2891 27.6603 49.5763L28.6481 49.6567V53.6077V57.5701L27.8211 57.4897C26.5577 57.3634 26.5577 57.3634 26.1672 54.8711C25.9145 53.2631 25.7882 52.7348 25.6044 52.528C25.4322 52.3328 25.0302 52.172 24.0424 51.9193C21.9521 51.4024 19.9995 50.5755 18.0126 49.381C17.4957 49.0709 16.9444 48.8182 16.7951 48.8182C16.485 48.8182 16.2783 48.9446 14.2683 50.3802C13.2691 51.1038 12.8441 51.345 12.5685 51.345C12.2469 51.345 11.9597 51.1038 10.3173 49.4614C8.72083 47.8764 8.43369 47.5318 8.43369 47.2447C8.43369 46.992 8.76677 46.4407 9.69709 45.1314C10.6159 43.8565 10.9605 43.2707 10.9605 43.0296C10.9605 42.8228 10.7078 42.2715 10.3288 41.6283C9.19173 39.7332 8.45666 37.9415 7.84793 35.6789C7.66417 34.9668 7.42297 34.3236 7.30812 34.1972C7.13584 34.0364 6.55008 33.8871 4.93063 33.623C2.266 33.175 2.38086 33.2784 2.27749 31.3029C2.23155 30.5449 2.24303 29.3619 2.28898 28.6727C2.40383 26.9499 2.32343 27.0073 4.93063 26.5824C6.50414 26.3297 7.05544 26.1919 7.26218 26.0196C7.44594 25.8588 7.61823 25.4224 7.84793 24.5265C8.44518 22.2639 9.19173 20.4606 10.3288 18.5655C10.6848 17.9568 10.9605 17.3596 10.9605 17.1873C10.9605 16.9576 10.57 16.3144 9.69709 15.0854C8.97351 14.0632 8.43369 13.1903 8.43369 13.041C8.43369 12.662 9.11133 11.858 10.7767 10.2501C11.9827 9.10153 12.3043 8.84885 12.5914 8.84885C12.8326 8.84885 13.3035 9.11301 14.2683 9.81363C16.2783 11.2493 16.485 11.3756 16.7836 11.3756C16.9329 11.3756 17.5531 11.0885 18.1504 10.7325C20.1029 9.58392 22.825 8.48132 24.5363 8.14824C25.7193 7.91853 25.7882 7.80367 26.1672 5.32281C26.5692 2.71562 26.5462 2.75008 28.2806 2.66968L28.6481 2.64671V6.5977Z" fill="#E54750"/>
<path d="M37.7192 2.74997C35.9504 3.28978 35.0661 5.28825 35.893 6.9077C36.1227 7.36712 37.0875 8.27447 37.3287 8.27447C37.4665 8.27447 37.4895 8.87171 37.4895 11.5478V14.8327L37.2023 15.1083L36.9267 15.3954H33.6648H30.3915L30.2192 15.1198C29.7942 14.4766 28.8295 14.3388 26.9803 14.6604C20.491 15.7745 15.3685 20.9314 14.22 27.4896C13.9788 28.8679 13.9788 31.3258 14.22 32.704C15.3685 39.2622 20.491 44.4192 26.9803 45.5333C28.8295 45.8549 29.7942 45.717 30.2192 45.0739L30.3915 44.7982H33.55C36.8348 44.7982 37.2368 44.8556 37.4206 45.315C37.455 45.4184 37.4895 46.946 37.4895 48.7147C37.4895 51.3334 37.4665 51.9192 37.3287 51.9192C37.0875 51.9192 36.1227 52.8265 35.893 53.286C34.9627 55.1007 36.1801 57.3059 38.2246 57.5126C39.419 57.6389 40.4987 57.0417 41.0729 55.9506C41.831 54.5034 41.2567 52.7346 39.7751 51.9651L39.442 51.7928V48.4391V45.0739L39.1434 44.4766C38.9826 44.1435 38.661 43.7301 38.4313 43.5348C37.6618 42.9031 37.3057 42.8457 33.8486 42.8457H30.7131V41.8694V40.8931H36.2376H41.7621L42.0951 40.5601C42.4512 40.204 42.5086 39.8824 42.2904 39.4804C42.0033 38.9406 42.0951 38.9521 36.2605 38.9406H30.7131V37.4475V35.9544H38.5691C43.4964 35.9544 46.54 36.0003 46.7353 36.0693C47.2866 36.276 47.367 36.7239 47.367 39.4919V42.0187L47.0224 42.1565C46.5515 42.3518 45.7016 43.2936 45.5293 43.8105C45.4489 44.0516 45.4144 44.58 45.4374 45.0279C45.4948 46.0501 45.9198 46.7737 46.7697 47.2791C47.7919 47.8993 48.9749 47.8878 49.9282 47.2561C51.6396 46.1305 51.6396 43.4659 49.9167 42.3748L49.3769 42.0302L49.3195 39.1359C49.2621 36.3909 49.2506 36.2071 48.9979 35.7017C48.8486 35.3916 48.5155 34.9667 48.2514 34.7484C47.367 33.9904 47.5048 34.0019 38.6725 34.0019H30.7131V32.5662V31.1305H42.0722H53.4313L53.5691 31.4751C53.7529 31.9115 54.465 32.5662 55.0278 32.7959C55.269 32.8993 55.7858 32.9912 56.1763 32.9912C57.0607 32.9912 57.9221 32.5662 58.4734 31.8426C59.6219 30.3265 59.0247 28.1443 57.2559 27.3863C56.7046 27.1451 55.5791 27.1451 55.0278 27.3863C54.465 27.6389 53.7529 28.2821 53.5691 28.7186L53.4313 29.0631H42.0722H30.7131V27.6275V26.1918H38.6725C47.5048 26.1918 47.367 26.2033 48.2514 25.4452C48.5155 25.227 48.8486 24.802 48.9979 24.4919C49.2506 23.9866 49.2621 23.8028 49.3195 21.0578L49.3769 18.1749L49.9397 17.7844C51.1572 16.969 51.5706 15.361 50.9045 14.0746C50.3532 13.018 49.4803 12.4896 48.2858 12.4781C47.0684 12.4781 46.0691 13.1443 45.5867 14.2814C45.3455 14.8556 45.3685 16.0271 45.6327 16.6014C45.8509 17.0953 46.7238 17.9682 47.1258 18.0945C47.367 18.1634 47.367 18.2094 47.367 20.6902C47.367 23.4697 47.2866 23.9177 46.7353 24.1244C46.54 24.1933 43.4964 24.2392 38.5691 24.2392H30.7131V22.7461V21.253H36.2605C42.0951 21.2415 42.0033 21.253 42.2904 20.7132C42.5086 20.3112 42.4512 19.9896 42.0951 19.6336L41.7621 19.3005H36.2376H30.7131V18.3242V17.348H33.8486C35.6403 17.348 37.1564 17.2905 37.3976 17.2331C38.0523 17.0494 38.7644 16.4406 39.1204 15.7515L39.442 15.1428V11.766V8.38932L39.8785 8.1711C42.0837 7.03404 41.8195 3.62286 39.4535 2.81888C38.9137 2.63511 38.2016 2.61214 37.7192 2.74997ZM38.9711 4.7714C39.8325 5.20785 39.465 6.55165 38.4772 6.55165C37.9374 6.55165 37.4321 5.97738 37.5354 5.4835C37.6847 4.72546 38.305 4.42684 38.9711 4.7714ZM48.8601 14.5915C48.9749 14.6489 49.1357 14.8786 49.2046 15.0968C49.5262 16.0731 48.3892 16.7622 47.6311 16.0501C47.2866 15.74 47.2751 15.1083 47.6197 14.7408C47.8838 14.4536 48.4696 14.3847 48.8601 14.5915ZM28.6457 30.0968C28.6457 43.6037 28.6457 43.7645 28.416 43.7645C27.9336 43.7645 25.9007 43.3051 25.0852 43.018C21.2491 41.6282 18.125 38.5157 16.7697 34.714C15.7475 31.8541 15.7475 28.3281 16.7697 25.4797C18.148 21.6665 21.2835 18.531 25.0852 17.1872C25.9811 16.8656 27.7843 16.4521 28.3356 16.4406L28.6457 16.4291V30.0968ZM56.8425 29.4651C57.0262 29.6374 57.1296 29.8786 57.1296 30.0968C57.1296 30.9582 56.0155 31.3602 55.4412 30.717C55.1082 30.361 55.1082 29.8786 55.4183 29.4766C55.7399 29.0631 56.4405 29.0516 56.8425 29.4651ZM48.8601 43.9942C48.9749 44.0516 49.1357 44.2814 49.2046 44.4996C49.5262 45.4758 48.3892 46.165 47.6311 45.4529C47.2866 45.1428 47.2751 44.5111 47.6197 44.1435C47.8838 43.8564 48.4696 43.7875 48.8601 43.9942ZM39.1549 53.9291C39.442 54.2048 39.5224 54.6757 39.3731 55.0777C39.2812 55.2959 38.7414 55.5945 38.4198 55.5945C38.0752 55.5945 37.6158 55.1236 37.5354 54.7101C37.478 54.4 37.5239 54.2852 37.8111 53.9866C38.259 53.5501 38.7644 53.5271 39.1549 53.9291Z" fill="#E54750"/>
</g>
<defs>
<clipPath id="clip0_22_4942">
<rect width="58.8055" height="58.8055" fill="white" transform="translate(0.28125 0.693359)"/>
</clipPath>
</defs>
</svg>
