<svg width="60" height="60" viewBox="0 0 60 60" fill="none" xmlns="http://www.w3.org/2000/svg">
<rect width="60" height="60" rx="12" fill="#E54750"/>
<path fill-rule="evenodd" clip-rule="evenodd" d="M30.8525 13.9224C33.2746 12.2502 33.4557 15.5608 35.8326 13.4923V16.868C33.5661 18.9082 33.0766 15.6117 30.8525 17.2868V13.9224ZM44.4855 47.7615V28.0025H36.9814V23.2176L30.5101 19.0468V13.8602H30.4875C30.6233 13.781 30.7139 13.631 30.7139 13.4612C30.7139 13.2066 30.5073 13 30.2526 13C29.998 13 29.7914 13.2066 29.7914 13.4612C29.7914 13.631 29.882 13.7781 30.0178 13.8602H29.9952V19.0383L23.5097 23.2176V28.0025H16V47.77C25.4961 47.77 34.9894 47.7615 44.4855 47.7615ZM29.7546 25.0682C29.7546 24.8645 29.9216 24.6975 30.1253 24.6975C30.329 24.6975 30.496 24.8645 30.496 25.0682V26.5028H31.5599C31.7636 26.5028 31.9306 26.6697 31.9306 26.8735C31.9306 27.0772 31.7636 27.2442 31.5599 27.2442H30.1253C29.9216 27.2442 29.7546 27.0772 29.7546 26.8735V25.0682ZM30.2413 23.925C31.6363 23.925 32.7682 25.0569 32.7682 26.4519C32.7682 27.8469 31.6363 28.9787 30.2413 28.9787C28.8463 28.9787 27.7145 27.8469 27.7145 26.4519C27.7173 25.0569 28.8463 23.925 30.2413 23.925ZM26.3591 33.5343H34.1235V34.9944H26.3591V33.5343ZM26.3591 36.7601H34.1235V38.2201H26.3591V36.7601ZM26.3591 39.9886H34.1235V41.4487H26.3591V39.9886ZM26.3591 43.2144H34.1235V44.6744H26.3591V43.2144ZM19.0588 33.5343H22.8137V34.9944H19.0588V33.5343ZM37.669 33.5343H41.4239V34.9944H37.669V33.5343ZM19.0588 36.7601H22.8137V38.2201H19.0588V36.7601ZM37.669 36.7601H41.4239V38.2201H37.669V36.7601ZM19.0588 39.9886H22.8137V41.4487H19.0588V39.9886ZM37.669 39.9886H41.4239V41.4487H37.669V39.9886ZM19.0588 43.2144H22.8137V44.6744H19.0588V43.2144ZM37.669 43.2144H41.4239V44.6744H37.669V43.2144Z" fill="white"/>
</svg>
