<svg width="29" height="35" viewBox="0 0 29 35" fill="none" xmlns="http://www.w3.org/2000/svg">
<path fill-rule="evenodd" clip-rule="evenodd" d="M15.0223 0.922446C17.4444 -0.749841 17.6255 2.56078 20.0024 0.492349V3.86805C17.7359 5.90818 17.2464 2.61171 15.0223 4.28683V0.922446ZM28.6553 34.7615V15.0025H21.1512V10.2176L14.6799 6.04683V0.860195H14.6573C14.7931 0.780967 14.8837 0.630999 14.8837 0.461223C14.8837 0.20656 14.6771 0 14.4224 0C14.1678 0 13.9612 0.20656 13.9612 0.461223C13.9612 0.630999 14.0518 0.778137 14.1876 0.860195H14.165V6.03835L7.67953 10.2176V15.0025H0.1698V34.77C9.6659 34.77 19.1592 34.7615 28.6553 34.7615ZM13.9244 12.0682C13.9244 11.8645 14.0914 11.6975 14.2951 11.6975C14.4988 11.6975 14.6658 11.8645 14.6658 12.0682V13.5028H15.7297C15.9334 13.5028 16.1004 13.6697 16.1004 13.8735C16.1004 14.0772 15.9334 14.2442 15.7297 14.2442H14.2951C14.0914 14.2442 13.9244 14.0772 13.9244 13.8735V12.0682ZM14.4111 10.925C15.8061 10.925 16.9379 12.0569 16.9379 13.4519C16.9379 14.8469 15.8061 15.9787 14.4111 15.9787C13.0161 15.9787 11.8843 14.8469 11.8843 13.4519C11.8871 12.0569 13.0161 10.925 14.4111 10.925ZM10.5289 20.5343H18.2933V21.9944H10.5289V20.5343ZM10.5289 23.7601H18.2933V25.2201H10.5289V23.7601ZM10.5289 26.9886H18.2933V28.4487H10.5289V26.9886ZM10.5289 30.2144H18.2933V31.6744H10.5289V30.2144ZM3.22859 20.5343H6.98345V21.9944H3.22859V20.5343ZM21.8388 20.5343H25.5937V21.9944H21.8388V20.5343ZM3.22859 23.7601H6.98345V25.2201H3.22859V23.7601ZM21.8388 23.7601H25.5937V25.2201H21.8388V23.7601ZM3.22859 26.9886H6.98345V28.4487H3.22859V26.9886ZM21.8388 26.9886H25.5937V28.4487H21.8388V26.9886ZM3.22859 30.2144H6.98345V31.6744H3.22859V30.2144ZM21.8388 30.2144H25.5937V31.6744H21.8388V30.2144Z" fill="#2E2E2E"/>
</svg>
