<svg width="60" height="60" viewBox="0 0 60 60" fill="none" xmlns="http://www.w3.org/2000/svg">
<rect width="60" height="60" rx="12" fill="#E54750"/>
<path fill-rule="evenodd" clip-rule="evenodd" d="M14 43.5624H18.7707V13.1245C18.7707 12.8444 18.9999 13.1245 19.28 13.1245H27.3811H32.9243H41.0254C41.3055 13.1245 41.5347 12.8444 41.5347 13.1245V43.5624H46.3054V47.77H32.9215H27.3811H14V43.5624ZM28.5667 29.6154H31.8604C31.9594 29.6154 32.0415 29.6974 32.0415 29.7936V33.8003C32.0415 33.8994 31.9594 33.9814 31.8604 33.9814H28.5667C28.4677 33.9814 28.3856 33.8994 28.3856 33.8003V29.7936C28.3856 29.6946 28.4649 29.6154 28.5667 29.6154ZM28.213 16.8058H32.0867V19.8787H35.1597V23.7524H32.0896V26.8254H28.213V23.7524H25.1401V19.8787H28.213V16.8058ZM32.9215 15.6117H27.3811H21.5097C21.3088 15.6117 21.1447 15.8098 21.1447 16.0475V41.7713C21.1447 42.009 21.3117 42.207 21.5097 42.207H27.3811H32.9243H38.7957C38.9966 42.207 39.1607 42.0118 39.1607 41.7713V16.0475C39.1607 15.807 38.9938 15.6117 38.7957 15.6117H32.9215ZM31.8519 36.2677H31.767H31.7585H28.5469H28.5384H28.4535C28.3517 36.2677 28.2696 36.3498 28.2696 36.4516V40.4555C28.2696 40.5574 28.3517 40.6394 28.4535 40.6394H28.5271H28.5469H31.7557H31.7727H31.8491C31.9509 40.6394 32.033 40.5574 32.033 40.4555V36.4516C32.0358 36.3498 31.9509 36.2677 31.8519 36.2677ZM37.4488 36.2649H34.1467C34.0448 36.2649 33.9628 36.3469 33.9628 36.4516V40.4555C33.9628 40.5574 34.0448 40.6394 34.1467 40.6394H37.4516C37.5535 40.6394 37.6384 40.5574 37.6384 40.4555V36.4516C37.6356 36.3498 37.5507 36.2649 37.4488 36.2649ZM37.4488 29.6267H34.1467C34.0448 29.6267 33.9628 29.7087 33.9628 29.8106V33.8145C33.9628 33.9163 34.0448 34.0012 34.1467 34.0012H37.4516C37.5535 34.0012 37.6384 33.9192 37.6384 33.8173V29.8106C37.6356 29.7087 37.5507 29.6267 37.4488 29.6267ZM22.8538 36.2649H26.1587C26.2606 36.2649 26.3427 36.3469 26.3427 36.4516V40.4555C26.3427 40.5574 26.2578 40.6394 26.1587 40.6394H22.8538C22.7519 40.6394 22.667 40.5574 22.667 40.4555V36.4516C22.667 36.3498 22.7519 36.2649 22.8538 36.2649ZM22.8538 29.6267H26.1587C26.2606 29.6267 26.3427 29.7087 26.3427 29.8106V33.8145C26.3427 33.9163 26.2578 34.0012 26.1587 34.0012H22.8538C22.7519 34.0012 22.667 33.9192 22.667 33.8173V29.8106C22.667 29.7087 22.7519 29.6267 22.8538 29.6267Z" fill="white"/>
</svg>
