<svg width="33" height="35" viewBox="0 0 33 35" fill="none" xmlns="http://www.w3.org/2000/svg">
<path fill-rule="evenodd" clip-rule="evenodd" d="M0.509766 30.5624H5.28045V0.124502C5.28045 -0.155627 5.50965 0.124502 5.78978 0.124502H13.8909H19.4341H27.5352C27.8153 0.124502 28.0445 -0.155627 28.0445 0.124502V30.5624H32.8152V34.77H19.4312H13.8909H0.509766V30.5624ZM15.0765 16.6154H18.3701C18.4692 16.6154 18.5512 16.6974 18.5512 16.7936V20.8003C18.5512 20.8994 18.4692 20.9814 18.3701 20.9814H15.0765C14.9775 20.9814 14.8954 20.8994 14.8954 20.8003V16.7936C14.8954 16.6946 14.9746 16.6154 15.0765 16.6154ZM14.7228 3.8058H18.5965V6.87873H21.6694V10.7524H18.5993V13.8254H14.7228V10.7524H11.6499V6.87873H14.7228V3.8058ZM19.4312 2.61171H13.8909H8.0195C7.8186 2.61171 7.65448 2.80978 7.65448 3.04747V28.7713C7.65448 29.009 7.82143 29.207 8.0195 29.207H13.8909H19.4341H25.3055C25.5064 29.207 25.6705 29.0118 25.6705 28.7713V3.04747C25.6705 2.80695 25.5035 2.61171 25.3055 2.61171H19.4312ZM18.3616 23.2677H18.2768H18.2683H15.0567H15.0482H14.9633C14.8614 23.2677 14.7794 23.3498 14.7794 23.4516V27.4555C14.7794 27.5574 14.8614 27.6394 14.9633 27.6394H15.0369H15.0567H18.2654H18.2824H18.3588C18.4607 27.6394 18.5427 27.5574 18.5427 27.4555V23.4516C18.5456 23.3498 18.4607 23.2677 18.3616 23.2677ZM23.9586 23.2649H20.6564C20.5546 23.2649 20.4725 23.3469 20.4725 23.4516V27.4555C20.4725 27.5574 20.5546 27.6394 20.6564 27.6394H23.9614C24.0633 27.6394 24.1482 27.5574 24.1482 27.4555V23.4516C24.1453 23.3498 24.0604 23.2649 23.9586 23.2649ZM23.9586 16.6267H20.6564C20.5546 16.6267 20.4725 16.7087 20.4725 16.8106V20.8145C20.4725 20.9163 20.5546 21.0012 20.6564 21.0012H23.9614C24.0633 21.0012 24.1482 20.9192 24.1482 20.8173V16.8106C24.1453 16.7087 24.0604 16.6267 23.9586 16.6267ZM9.36355 23.2649H12.6685C12.7704 23.2649 12.8524 23.3469 12.8524 23.4516V27.4555C12.8524 27.5574 12.7676 27.6394 12.6685 27.6394H9.36355C9.26169 27.6394 9.1768 27.5574 9.1768 27.4555V23.4516C9.1768 23.3498 9.26169 23.2649 9.36355 23.2649ZM9.36355 16.6267H12.6685C12.7704 16.6267 12.8524 16.7087 12.8524 16.8106V20.8145C12.8524 20.9163 12.7676 21.0012 12.6685 21.0012H9.36355C9.26169 21.0012 9.1768 20.9192 9.1768 20.8173V16.8106C9.1768 16.7087 9.26169 16.6267 9.36355 16.6267Z" fill="#2E2E2E"/>
</svg>
