<svg width="46" height="55" viewBox="0 0 46 55" fill="none" xmlns="http://www.w3.org/2000/svg">
<path d="M1.21891 0.402031C0.982248 0.500641 0.627255 0.816193 0.430036 1.13174C0.0947647 1.64451 0.0750429 2.92643 0.0158773 26.5335C-0.0235664 40.2007 0.0158773 51.7577 0.0750429 52.2311C0.15393 52.6847 0.410314 53.3158 0.666699 53.6116L1.1203 54.1441L19.6391 54.2033C37.6846 54.2427 38.158 54.2427 38.7693 53.868C39.1835 53.5919 39.4596 53.2369 39.5976 52.7241C39.8343 51.8564 39.8738 36.8086 39.6371 36.2169C39.499 35.8817 39.4202 35.9014 38.7693 36.5719C38.2763 37.0452 38.0002 37.5383 37.9213 38.0511C37.8621 38.4849 37.7832 41.7982 37.7635 45.4468L37.7438 52.0733L19.935 52.1325L2.14584 52.1719V27.2632V2.37422H15.5567H28.9676V5.62833C28.9676 10.8743 29.007 10.9138 34.2333 11.0124L37.8424 11.0913V16.4951C37.8424 19.4928 37.9213 21.8989 38.0199 21.8989C38.1185 21.8989 38.5129 21.5439 38.8877 21.1297C39.7949 20.1239 39.8738 19.6111 39.7751 14.2862C39.716 10.6968 39.6568 9.86852 39.3807 9.37548C39.0257 8.74438 31.3736 1.07257 30.5453 0.520363C30.1114 0.244259 28.6915 0.204815 15.8525 0.224537C8.04267 0.224537 1.45557 0.303425 1.21891 0.402031ZM35.4758 8.72466C35.4758 8.82327 34.5094 8.88243 33.3064 8.88243H31.137V6.55525V4.2478L33.3064 6.4172C34.4897 7.60051 35.4758 8.64577 35.4758 8.72466Z" fill="#E54750"/>
<path d="M3.86071 7.24516C3.78182 7.30433 3.72266 8.2707 3.72266 9.37512C3.72266 11.8995 3.7621 11.939 6.08928 11.939C8.41646 11.939 8.4559 11.8995 8.4559 9.49345C8.4559 8.2707 8.37701 7.50155 8.21924 7.34377C7.96286 7.08739 4.09737 6.98878 3.86071 7.24516ZM7.07537 9.47373V10.4598H6.08928H5.10319V9.47373V8.48764H6.08928H7.07537V9.47373Z" fill="#E54750"/>
<path d="M11.2771 7.8968C10.3107 8.29123 10.1135 9.94787 10.9221 10.7565L11.3954 11.2495H18.6728C25.7332 11.2495 25.9699 11.2298 26.4826 10.8354C26.9165 10.5001 26.9954 10.2634 26.9954 9.49427C26.9954 8.78428 26.8968 8.44901 26.5812 8.1729C26.1868 7.81791 25.7332 7.79819 18.9292 7.75874C14.9651 7.73902 11.5137 7.79819 11.2771 7.8968Z" fill="#E54750"/>
<path d="M4.07817 14.8188C3.5654 15.0949 3.54568 18.7434 4.05845 19.1576C4.53178 19.5717 8.00282 19.552 8.25921 19.1378C8.35782 18.9801 8.45643 18.0334 8.45643 17.0276C8.45643 14.6807 8.39726 14.6018 6.12925 14.6018C5.1826 14.6018 4.25567 14.7004 4.07817 14.8188Z" fill="#E54750"/>
<path d="M11.675 15.3318C10.5114 15.5487 10.0381 17.3828 10.9255 18.2506L11.3989 18.7437H22.522C33.4874 18.7437 33.6648 18.7437 34.1776 18.3295C34.5918 18.0139 34.6904 17.7576 34.6904 17.0673C34.6904 16.3573 34.5918 16.1206 34.079 15.7065L33.4676 15.1937L22.7981 15.2134C16.921 15.2332 11.9116 15.2923 11.675 15.3318Z" fill="#E54750"/>
<path d="M4.31431 22.2336C3.80154 22.4506 3.72266 22.7464 3.72266 24.6989C3.72266 26.3949 3.7621 26.6316 4.09737 26.8288C4.51153 27.0458 7.62758 27.1049 8.14035 26.9077C8.39674 26.8091 8.4559 26.4344 8.4559 24.7777C8.4559 23.693 8.35729 22.6478 8.25868 22.49C8.12063 22.2731 7.62758 22.1745 6.34566 22.1547C5.39901 22.135 4.47209 22.1547 4.31431 22.2336ZM7.07537 24.5608V25.4483H6.08928H5.10319V24.5608V23.6733H6.08928H7.07537V24.5608Z" fill="#E54750"/>
<path d="M39.6344 23.3984C38.9639 23.9112 38.4314 24.3845 38.4708 24.4831C38.5103 24.562 39.595 25.7256 40.8966 27.0272L43.2435 29.4136L43.7957 28.7628C44.6832 27.6781 45.2157 26.5539 45.0776 26.0017C44.8015 24.917 42.1785 22.4912 41.2713 22.4912C41.0346 22.4912 40.2852 22.9054 39.6344 23.3984Z" fill="#E54750"/>
<path d="M11.6722 22.9048C10.8833 23.1415 10.4297 23.7529 10.4297 24.6206C10.4297 25.5673 10.7255 26.0012 11.5736 26.2378C12.0272 26.3562 16.1687 26.4351 22.8545 26.4351C32.459 26.4351 33.4648 26.3956 33.8987 26.0998C34.589 25.6462 34.6876 25.449 34.6876 24.6404C34.6876 23.6937 34.1945 23.1021 33.2084 22.8851C32.1829 22.6485 12.5005 22.6682 11.6722 22.9048Z" fill="#E54750"/>
<path d="M37.4894 25.5077C37.3316 25.7049 37.805 26.2966 39.5208 28.0124C40.7435 29.2549 41.848 30.3001 41.9663 30.3396C42.0846 30.379 42.2424 30.2607 42.3016 30.0832C42.4002 29.8465 41.8282 29.1563 40.1913 27.4996C38.9686 26.2571 37.8839 25.2513 37.8247 25.2513C37.7458 25.2513 37.6078 25.3697 37.4894 25.5077Z" fill="#E54750"/>
<path d="M31.4553 31.523C28.1223 34.8363 26.4065 36.7099 26.091 37.341C25.6571 38.1693 24.316 43.1392 24.4738 43.297C24.5132 43.3364 25.519 43.0997 26.7418 42.8039C30.3706 41.8967 30.7848 41.6009 36.228 36.1774C38.851 33.5544 41.0007 31.2666 41.0007 31.1089C41.0007 30.32 40.3696 30.7539 37.5296 33.4755C29.6803 40.9501 28.8717 41.6206 27.5898 41.6206C26.2487 41.6206 25.6176 40.1217 26.3671 38.7412C26.5446 38.3862 29.0098 35.6252 31.83 32.588C34.6502 29.5311 36.9774 26.9475 37.0169 26.8489C37.0563 26.7306 36.9183 26.632 36.721 26.632C36.5238 26.632 34.2755 28.7225 31.4553 31.523Z" fill="#E54750"/>
<path d="M32.8518 32.9041L27.9805 37.7951V38.722V39.6489H28.9468H29.8935L34.8831 34.679L39.8727 29.7091L38.9064 28.8611C38.3739 28.3877 37.9006 28.013 37.8414 28.013C37.7822 28.013 35.5339 30.2219 32.8518 32.9041Z" fill="#E54750"/>
<path d="M4.07848 30.0047C3.56572 30.2808 3.56572 33.9294 4.05876 34.4224C4.49264 34.876 7.96369 34.7774 8.25952 34.3238C8.35813 34.166 8.45674 33.1602 8.45674 32.1149C8.45674 30.4189 8.41729 30.1822 8.08202 29.985C7.58897 29.7286 4.51236 29.7286 4.07848 30.0047Z" fill="#E54750"/>
<path d="M11.2974 30.6543C10.6072 30.9699 10.4297 31.2854 10.4297 32.2715C10.4297 32.7251 10.5875 33.1195 10.903 33.4154C11.5538 34.0662 13.5457 34.2042 20.4681 34.0662C25.9113 33.9676 26.0691 33.9479 26.5227 33.514C26.858 33.1984 26.996 32.8631 26.996 32.3109C26.996 31.2854 26.7397 30.8515 25.9902 30.5951C25.0041 30.2599 12.0863 30.319 11.2974 30.6543Z" fill="#E54750"/>
</svg>
