<svg width="62" height="55" viewBox="0 0 62 55" fill="none" xmlns="http://www.w3.org/2000/svg">
<path d="M17.0019 0.37508C16.3893 0.575109 15.3391 1.65027 15.1516 2.28786C14.9391 3.00046 14.9391 9.4264 15.1516 10.139C15.3516 10.8266 16.3893 11.8643 17.0769 12.0643C17.3769 12.1518 18.327 12.2143 19.3022 12.2143H21.0024V15.4023V18.6027L21.315 18.9028C21.515 19.1028 21.7525 19.2153 22.0276 19.2153C22.3901 19.2153 22.7777 18.8653 25.9407 15.7148L29.4412 12.2143H35.9546C43.2932 12.2143 43.2057 12.2268 44.1058 11.3017C44.9559 10.4265 45.0059 10.164 45.0059 6.21343C45.0059 2.26286 44.9559 2.00032 44.1058 1.12519C43.1557 0.16255 43.9808 0.212557 29.9537 0.22506C21.215 0.23756 17.3019 0.275066 17.0019 0.37508ZM42.6931 2.52539L43.0057 2.82544V6.21343V9.60143L42.6931 9.90147L42.3931 10.214H35.4796H28.5785L25.7906 12.9894L23.0027 15.7648V13.302C23.0027 10.0015 23.2028 10.214 20.1273 10.214C17.777 10.214 17.2644 10.114 17.0769 9.65144C17.0394 9.53892 17.0019 7.95119 17.0019 6.13842V2.82544L17.3144 2.52539L17.6144 2.21285H30.0038H42.3931L42.6931 2.52539Z" fill="#E54750"/>
<path d="M11.5645 15.3652C10.4393 15.5777 9.0141 16.3653 8.07647 17.2904C5.93865 19.4408 5.41358 22.5412 6.73877 25.2666C8.82658 29.5797 14.6024 30.5299 17.9529 27.1294C20.6658 24.3665 20.6533 20.0408 17.9404 17.3029C16.2902 15.6277 13.9398 14.9151 11.5645 15.3652ZM15.0525 17.6905C16.1902 18.2156 16.9153 18.9407 17.4778 20.0658C17.9154 20.966 17.9404 21.0785 17.9404 22.2162C17.9404 23.3538 17.9154 23.4663 17.4778 24.3665C16.9153 25.5041 16.1902 26.2042 15.0275 26.7543C14.2649 27.1169 14.0773 27.1544 13.0022 27.1544C11.927 27.1544 11.7395 27.1169 10.9769 26.7543C9.81422 26.2042 9.08912 25.5041 8.52653 24.3665C8.08897 23.4663 8.06397 23.3538 8.06397 22.2287C8.06397 21.141 8.10147 20.9535 8.46402 20.1909C8.9641 19.1282 9.6767 18.3531 10.6143 17.8655C11.5895 17.3405 12.1396 17.2154 13.2772 17.2654C14.0398 17.3029 14.4274 17.403 15.0525 17.6905Z" fill="#E54750"/>
<path d="M29.3165 17.5274L29.0039 17.8274V22.2156V26.6037L29.3165 26.9038C29.6165 27.2163 29.629 27.2163 32.1419 27.2163H34.6547L37.1551 29.2166C39.8805 31.3919 40.1055 31.5044 40.6931 30.9043C41.0807 30.5293 41.0807 30.3418 40.6431 28.6165L40.2806 27.2163H41.3432C42.2933 27.2163 42.4184 27.1913 42.6934 26.9038L43.006 26.6037V22.2156V17.8274L42.6934 17.5274L42.3934 17.2148H36.0049H29.6165L29.3165 17.5274ZM41.0057 22.2156V25.216H39.818C38.7178 25.216 38.5928 25.241 38.3178 25.5285C37.9802 25.8536 37.9427 26.1536 38.1427 26.8787C38.2178 27.1538 38.2553 27.3913 38.2178 27.4163C38.1927 27.4413 37.5302 26.9663 36.755 26.3412L35.3548 25.216H33.1795H31.0042V22.2156V19.2151H36.0049H41.0057V22.2156Z" fill="#E54750"/>
<path d="M48.5201 23.4152C45.3571 24.2653 43.3944 27.5533 44.1945 30.6538C45.0321 33.8542 48.3076 35.842 51.4455 35.0294C54.646 34.1918 56.6338 30.9163 55.8212 27.8033C54.9835 24.5654 51.6581 22.5651 48.5201 23.4152ZM51.6456 25.578C52.5082 25.9906 53.0458 26.5032 53.5208 27.3658C53.9084 28.0909 53.9459 28.2409 53.9459 29.216C53.9459 30.1912 53.9084 30.3412 53.5208 31.0663C53.0458 31.9414 52.6457 32.3165 51.7081 32.8166C51.1705 33.0916 50.9079 33.1416 50.0078 33.1416C49.0327 33.1541 48.8827 33.1166 48.1575 32.7291C47.2949 32.2665 46.7948 31.7289 46.3573 30.8413C45.9572 30.0162 45.9697 28.3909 46.3823 27.5283C46.9074 26.4531 47.92 25.628 49.0702 25.328C49.6828 25.1655 51.0455 25.303 51.6456 25.578Z" fill="#E54750"/>
<path d="M9.5639 30.3667C9.22635 30.4292 8.48874 30.7043 7.92616 30.9668C6.02588 31.8795 4.50066 33.8672 4.1381 35.8925C4.05059 36.3426 4.00058 38.5804 4.00058 41.4308V46.219H2.31284C0.675099 46.219 0.600088 46.2315 0.312546 46.5316L0 46.8316V50.2196V53.6076L0.312546 53.9077L0.612589 54.2202H31.0045H61.3965L61.6965 53.9077L62.0091 53.6076V50.2196V46.8316L61.6965 46.5316C61.4465 46.2816 61.2715 46.219 60.7214 46.219H60.0463L59.9713 44.8688C59.8462 42.406 59.0586 40.6432 57.3209 38.9055C56.1832 37.7678 55.1331 37.1052 53.6953 36.6301C52.7327 36.3051 52.5952 36.2926 50.0073 36.2926C47.4194 36.2926 47.2819 36.3051 46.3193 36.6301C44.8816 37.1052 43.8314 37.7678 42.6937 38.9055C40.956 40.6432 40.1684 42.406 40.0434 44.8688L39.9683 46.219H30.9795H21.9907L22.0282 45.919C22.0532 45.694 23.3784 44.5938 27.554 41.3433C30.567 38.993 33.1423 36.9552 33.2674 36.8052C33.7549 36.2176 33.9425 35.6675 33.9425 34.8424C33.9175 32.7921 32.0797 31.4169 30.0919 31.9795C29.8169 32.0545 28.0416 33.2422 25.8788 34.7924C23.816 36.2551 22.1032 37.4678 22.0657 37.4678C22.0282 37.4678 22.0032 37.2802 22.0032 37.0552C22.0032 36.2176 21.7282 35.1299 21.2531 34.1423C20.3405 32.242 18.3527 30.7168 16.3274 30.3542C15.4273 30.1917 10.439 30.1917 9.5639 30.3667ZM17.0275 32.6796C18.0901 33.1796 18.8653 33.8922 19.3403 34.8049C19.7154 35.5175 20.0654 36.7052 19.9779 36.9677C19.9529 37.0427 19.5404 36.8177 19.0653 36.4676C18.0026 35.705 17.1025 35.405 16.2024 35.53C14.9772 35.6925 13.827 36.5926 13.427 37.6928C13.2269 38.2679 13.2019 39.4181 13.402 39.9806C13.752 40.9933 14.1021 41.3183 17.09 43.3186L20.0029 45.2689V48.7444V52.2199H13.0019H5.98837L6.02588 44.1312L6.06339 36.0301L6.46344 35.1924C6.67598 34.7299 7.08854 34.1048 7.36358 33.8047C7.91366 33.2046 9.03882 32.542 9.82644 32.3545C10.1015 32.292 11.6392 32.242 13.2519 32.2545L16.1899 32.2795L17.0275 32.6796ZM31.6921 34.1548C32.0047 34.4548 32.0797 34.8674 31.9297 35.2799C31.8797 35.3925 29.4668 37.3428 26.5539 39.6056L21.2531 43.7187L18.4527 41.8559C16.915 40.8183 15.5648 39.8556 15.4523 39.6931C15.1647 39.293 15.1897 38.4429 15.5023 38.0554C15.8398 37.6303 16.5274 37.4053 16.99 37.5678C17.1775 37.6303 18.1276 38.2554 19.0903 38.943C20.0529 39.6431 20.9781 40.2307 21.1406 40.2807C21.5281 40.3807 21.6282 40.3057 26.6039 36.7427C30.967 33.6172 31.092 33.5422 31.6921 34.1548ZM50.5574 39.5556L50.8949 40.8933L50.4574 41.3308L50.0073 41.7809L49.5572 41.3308L49.1197 40.8933L49.4572 39.5556C49.7198 38.4929 49.8323 38.2179 50.0073 38.2179C50.1823 38.2179 50.2948 38.4929 50.5574 39.5556ZM47.3194 39.8306C47.1319 40.5932 47.0069 41.3433 47.0569 41.5059C47.0944 41.6559 47.682 42.331 48.3571 43.0061C50.0073 44.6313 50.0073 44.6313 51.6575 43.0061C52.3326 42.331 52.9202 41.6559 52.9577 41.5059C53.0077 41.3433 52.8827 40.5932 52.6952 39.8306C52.5077 39.0805 52.3702 38.4429 52.3952 38.4179C52.5202 38.2929 54.0454 38.893 54.708 39.318C56.7458 40.6432 57.8335 42.531 57.971 44.9939L58.046 46.219H50.0073H41.9686L42.0436 44.9939C42.1187 43.6937 42.4312 42.606 43.0438 41.5684C43.4688 40.8433 44.644 39.6681 45.3691 39.243C45.9567 38.9055 47.5194 38.3179 47.6195 38.4054C47.6445 38.4304 47.5069 39.0805 47.3194 39.8306ZM4.00058 50.2196V52.2199H3.00044H2.00029V50.2196V48.2193H3.00044H4.00058V50.2196ZM60.0088 50.2196V52.2199H41.006H22.0032V50.2196V48.2193H41.006H60.0088V50.2196Z" fill="#E54750"/>
</svg>
