<svg width="54" height="55" viewBox="0 0 54 55" fill="none" xmlns="http://www.w3.org/2000/svg">
<path d="M24.2896 0.731367C23.6359 1.44189 23.6928 1.83979 24.4886 2.91979L25.1707 3.80084L22.6128 4.284C15.2517 5.67663 9.31172 10.1956 5.92961 16.9029C4.90646 18.9777 4.84961 19.5461 5.58856 20.2282C6.44119 20.9956 7.29382 20.5693 7.94751 19.0345C9.68119 15.084 13.4328 11.0482 17.2128 9.08716C19.5149 7.89347 23.0391 6.75663 24.4886 6.75663H25.3412L24.517 7.60926C23.8065 8.34821 23.7496 8.57558 23.977 9.25768C24.4886 10.7356 25.3696 10.4514 27.8138 8.00716C29.2065 6.64295 30.0591 5.53452 30.0591 5.16505C30.0591 4.51137 25.8244 0.219788 25.1707 0.219788C24.9433 0.219788 24.5454 0.447157 24.2896 0.731367Z" fill="#E54750"/>
<path d="M33.9253 5.79138C33.0158 6.67243 33.4706 7.49664 35.3464 8.32085C39.3537 10.083 43.4464 14.0051 45.3506 17.8987C46.5727 20.3714 47.3969 23.1282 47.3969 24.6914V25.6293L46.5727 24.8335C45.5211 23.8387 44.3843 23.9809 44.1 25.1177C43.9295 25.7714 44.2137 26.1409 46.1464 28.1019C47.4822 29.4377 48.619 30.3472 48.96 30.3472C49.6422 30.3472 53.9337 26.1409 53.9337 25.4872C53.9337 24.9756 53.0527 24.0945 52.5695 24.0945C52.399 24.0945 51.8022 24.464 51.2906 24.9472L50.3243 25.7998L50.1537 24.2935C49.2158 16.5914 44.3843 9.79875 37.2506 6.21769C35.2611 5.22296 34.579 5.13769 33.9253 5.79138Z" fill="#E54750"/>
<path d="M24.7448 13.4364C24.3184 13.7206 24.0911 14.289 23.949 15.3122C23.7784 16.5627 23.6363 16.7901 22.8121 17.188C21.9311 17.6143 21.8742 17.5859 20.6806 16.7333C19.9984 16.2501 19.2027 15.8522 18.9184 15.8522C18.6342 15.8522 17.7532 16.449 16.9858 17.1596C15.2806 18.7512 15.1953 19.4333 16.4458 21.0248C17.3269 22.1333 17.3553 22.1617 16.9006 23.0996C16.5027 23.9238 16.2753 24.0659 15.0248 24.2364C13.1774 24.4922 12.7227 25.089 12.7227 27.2206C12.7227 29.3522 13.1774 29.949 15.0248 30.2048C16.2753 30.3754 16.5027 30.5175 16.9006 31.3417C17.3553 32.2796 17.3269 32.308 16.4458 33.4164C15.9627 34.0417 15.5648 34.8375 15.5648 35.1501C15.5648 36.0596 18.0374 38.589 18.89 38.589C19.2879 38.589 20.1121 38.1912 20.7374 37.708C21.8458 36.8269 21.8742 36.7985 22.8121 37.2533C23.6363 37.6512 23.7784 37.8785 23.949 39.129C24.2048 40.9764 24.8016 41.4312 26.9332 41.4312C29.0363 41.4312 29.6616 40.948 29.9174 39.1859C30.1163 37.708 30.3437 37.3669 31.3953 37.0543C31.85 36.9122 32.3616 37.1112 33.2142 37.7364C33.8679 38.1912 34.6637 38.589 34.9763 38.589C35.7721 38.589 38.3016 36.0027 38.3016 35.1785C38.3016 34.8375 37.9037 34.0417 37.4206 33.4448C36.7669 32.6206 36.5963 32.1943 36.7669 31.7112C37.0795 30.6312 37.4206 30.4038 38.8985 30.2048C40.6606 29.949 41.1437 29.3238 41.1437 27.2206C41.1437 25.089 40.689 24.4922 38.8416 24.2364C37.5911 24.0659 37.3637 23.9238 36.9658 23.0996C36.5395 22.2185 36.5679 22.1617 37.4206 20.968C37.9037 20.2859 38.3016 19.4901 38.3016 19.2059C38.3016 18.9217 37.7048 18.0406 36.9942 17.2733C35.4027 15.568 34.7206 15.4827 33.129 16.7333C32.0206 17.6143 31.9921 17.6427 31.0542 17.188C30.23 16.7901 30.0879 16.5627 29.9174 15.3122C29.7753 14.289 29.5479 13.7206 29.1216 13.4364C28.3258 12.868 25.5406 12.868 24.7448 13.4364ZM29.6332 21.2238C31.1395 21.9059 32.7879 23.7817 33.2142 25.288C34.9195 31.6259 27.4163 36.4575 22.6132 32.109C18.0942 28.0448 20.8795 20.6838 26.9332 20.6838C27.8427 20.6838 28.9795 20.9111 29.6332 21.2238Z" fill="#E54750"/>
<path d="M27.4485 25.9977L26.1127 27.3335L25.4306 26.7083C25.0611 26.3672 24.4927 26.083 24.1517 26.083C23.4127 26.083 22.6738 27.0777 22.8727 27.7883C23.0717 28.5556 25.3738 30.6304 26.0275 30.6304C26.7096 30.6304 30.6317 26.6514 30.6317 25.9125C30.6317 25.5998 30.4896 25.202 30.2906 25.003C29.6369 24.3493 28.7843 24.6619 27.4485 25.9977Z" fill="#E54750"/>
<path d="M2.17815 25.9989C-0.0102663 28.102 -0.408161 28.9262 0.359207 29.7789C1.04131 30.5462 1.43921 30.4894 2.57605 29.4946L3.54237 28.642L3.74131 30.3757C4.45184 36.6852 8.57289 43.222 14.0582 46.7462C17.7245 49.1052 19.8276 49.6168 20.2539 48.281C20.5382 47.3715 20.055 46.7746 18.4634 46.0641C14.4561 44.302 10.4203 40.4368 8.51605 36.5431C7.29394 34.0704 6.46973 31.3136 6.46973 29.7504V28.8125L7.29394 29.6083C8.34552 30.6031 9.48237 30.461 9.76658 29.3241C9.9371 28.6704 9.65289 28.301 7.72026 26.3399C6.18552 24.8052 5.27605 24.0946 4.82131 24.0946C4.36658 24.0946 3.48552 24.7483 2.17815 25.9989Z" fill="#E54750"/>
<path d="M46.7405 34.0981C46.4847 34.2971 46.0584 34.9507 45.831 35.576C44.2394 39.4413 40.1468 43.7328 36.2531 45.6371C33.7805 46.8592 31.0236 47.6834 29.4605 47.6834H28.5226L29.3184 46.8592C30.3131 45.8076 30.171 44.6707 29.0342 44.3865C28.3805 44.216 28.011 44.5002 26.05 46.4328C24.4584 47.996 23.8047 48.8771 23.8047 49.3602C23.8047 50.2697 27.6984 54.2202 28.5794 54.2202C29.2331 54.2202 30.0573 53.5097 30.0573 52.9413C30.0573 52.7139 29.6594 52.0886 29.1763 51.5202L28.2952 50.5255H29.2331C30.6257 50.5255 34.5478 49.5307 36.3668 48.735C41.2552 46.575 45.4331 42.5392 47.9342 37.5371C48.9573 35.4907 49.0142 34.8939 48.3036 34.2402C47.6784 33.6718 47.3657 33.6434 46.7405 34.0981Z" fill="#E54750"/>
</svg>
