<svg width="61" height="60" viewBox="0 0 61 60" fill="none" xmlns="http://www.w3.org/2000/svg">
<g clip-path="url(#clip0_22_4918)">
<path d="M15.3665 3.19019L15.181 5.52211L13.5646 6.23759L11.9746 6.95307L10.2787 5.49562C9.32473 4.70064 8.47676 4.03816 8.37076 4.03816C8.29127 4.03816 7.1518 5.09813 5.85335 6.39659L3.49493 8.75501L3.99841 9.41748C4.2634 9.78847 4.95238 10.6099 5.48236 11.2459L6.48933 12.4384L5.77385 14.0548L5.03188 15.6978H3.70692C2.99144 15.6978 1.93148 15.7773 1.4015 15.8568L0.394531 16.0423V19.4076V22.773L1.216 22.9585C1.66649 23.038 2.72645 23.1175 3.54793 23.1175H5.03188L5.77385 24.7605L6.48933 26.3769L5.48236 27.5694C4.95238 28.2054 4.2634 29.0268 3.99841 29.3978L3.49493 30.0603L5.85335 32.4187C7.1518 33.7172 8.29127 34.7771 8.42376 34.7771C8.55626 34.7771 9.43073 34.1147 10.3582 33.2932C11.5772 32.2067 12.1601 31.8622 12.3986 32.0477C12.5576 32.2067 13.2731 32.5247 13.9886 32.7897C15.1545 33.2402 15.234 33.3197 15.234 34.2207C15.234 34.7506 15.3135 35.8106 15.393 36.5526L15.5785 37.957H19.1029H22.6538L22.6803 36.1551C22.7333 33.4787 22.8393 33.2402 24.5882 32.5247L26.1252 31.9152L27.9271 33.4522L29.729 35.0156L32.1935 32.5247L34.6579 30.0603L33.1209 28.2849L31.584 26.5359L32.22 24.893L32.8824 23.25L34.0484 23.197C34.7109 23.144 35.7443 23.0645 36.3803 22.9585L37.4933 22.826V19.4342V16.0158L36.6718 15.8568C36.2213 15.7773 35.1879 15.6978 34.4194 15.6978H32.9884L32.326 14.2138C31.955 13.3924 31.6635 12.5974 31.6635 12.4649C31.6635 12.3059 32.3525 11.4314 33.1739 10.4774L34.6579 8.78151L32.1935 6.29059L29.729 3.79967L27.9271 5.36312L26.1252 6.90007L24.6412 6.31709C23.8462 5.9726 23.1043 5.62811 22.9983 5.54861C22.9188 5.44262 22.7863 4.38265 22.6803 3.19019L22.5213 0.990765L19.0234 0.91127L15.552 0.831772L15.3665 3.19019ZM20.6664 4.75364C20.7458 5.7606 20.9048 6.71457 21.0108 6.92657C21.1168 7.11206 21.9383 7.53605 22.8128 7.85404C23.6873 8.17203 24.6942 8.64901 25.0387 8.8875C26.0192 9.57648 26.4432 9.44398 27.9801 8.14553C28.7486 7.48305 29.4641 6.95307 29.5436 6.95307C29.6231 6.95307 30.1265 7.40355 30.683 7.96003L31.637 8.9405L30.3385 10.4774C29.5966 11.3254 29.0136 12.0674 29.0136 12.1204C29.0136 12.1734 29.4376 13.0744 29.941 14.1343C30.4445 15.2208 30.8685 16.2808 30.8685 16.5192C30.8685 17.2877 31.6105 17.6322 33.5184 17.7647L35.3734 17.8972V19.4076V20.9181L33.4919 21.0771C31.531 21.2361 30.8685 21.5541 30.8685 22.2961C30.8685 22.5345 30.4445 23.5945 29.941 24.681C29.4376 25.7409 29.0931 26.7479 29.1991 26.9069C29.3051 27.0924 29.888 27.8344 30.524 28.5763L31.637 29.9013L30.6565 30.8818C30.1 31.4117 29.5701 31.8622 29.4906 31.8622C29.3846 31.8622 28.6956 31.3323 27.9271 30.6698C27.1586 30.0073 26.3902 29.4773 26.2577 29.4773C26.0987 29.4773 25.2507 29.8483 24.4027 30.2723C23.5548 30.7228 22.6538 31.0673 22.4153 31.0673C21.3288 31.0673 20.8783 31.7827 20.6664 33.8497L20.4809 35.8371H18.9174H17.354V34.0352C17.354 32.9752 17.2215 32.0477 17.036 31.8092C16.8505 31.5972 15.923 31.1468 14.969 30.8023C14.0151 30.4843 13.0081 30.0338 12.7166 29.8483C11.8951 29.2653 11.5772 29.3978 9.93421 30.8023L8.42376 32.1007L7.46979 31.1203C6.91331 30.5638 6.48933 30.0338 6.48933 29.9013C6.48933 29.7953 7.01931 29.0798 7.68179 28.3379C8.34426 27.5694 8.87425 26.8009 8.87425 26.6154C8.87425 26.4299 8.60926 25.7674 8.31777 25.158C7.99978 24.5485 7.52279 23.462 7.2843 22.72C6.86031 21.5011 6.75432 21.3686 5.80035 21.2096C5.24387 21.1036 4.2634 21.0241 3.65392 21.0241L2.51446 20.9976V19.4076V17.8177L3.91891 17.7912C6.46283 17.7382 6.78082 17.5792 7.2843 16.0953C7.54929 15.3533 7.99978 14.2668 8.31777 13.6573C8.60926 13.0479 8.87425 12.3854 8.87425 12.1999C8.87425 12.0144 8.34426 11.2459 7.68179 10.4774C7.01931 9.73547 6.48933 9.02 6.48933 8.914C6.48933 8.78151 6.91331 8.25152 7.46979 7.69504L8.42376 6.71457L9.93421 8.01303C10.7822 8.75501 11.6037 9.33799 11.7627 9.33799C11.9481 9.33799 12.6371 9.0465 13.3261 8.70201C14.0151 8.35752 15.0485 7.93353 15.6315 7.74804C17.089 7.29756 17.354 6.84707 17.354 4.96563C17.354 4.06466 17.4335 3.24319 17.5395 3.16369C17.619 3.0577 18.3344 2.9782 19.1029 2.9782H20.4809L20.6664 4.75364Z" fill="#E54750"/>
<path d="M16.7964 12.6505C15.233 13.1539 13.325 14.8499 12.5565 16.4133C11.7881 17.9768 11.7351 20.3617 12.3976 22.1106C13.325 24.4956 16.3724 26.5625 18.9958 26.5625C21.3543 26.5625 23.9777 25.0521 25.1966 22.9851C26.6011 20.6002 26.3096 17.1818 24.5341 14.9294C22.8647 12.8095 19.4463 11.8025 16.7964 12.6505ZM20.7448 14.7969C24.9846 16.5458 25.0906 22.0047 20.9303 23.9391C17.2469 25.635 13.1925 22.1901 14.1995 18.1623C14.9415 15.3269 18.0949 13.6839 20.7448 14.7969Z" fill="#E54750"/>
<path d="M33.5984 1.14963C33.4129 1.33512 33.2539 1.70611 33.2539 1.94461C33.2539 2.63358 33.7574 2.89857 35.7713 3.21656C39.6402 3.90554 44.092 6.23746 46.318 8.83438C49.3654 12.3588 50.9818 16.4396 51.4323 21.7924C51.5913 23.7269 51.6708 23.8859 54.6387 28.9207C56.3346 31.8091 57.5536 34.1675 57.4211 34.3C57.3151 34.406 55.9106 35.254 54.3207 36.1815L51.4058 37.8244L50.6903 42.5942C50.2928 45.2177 49.8424 47.8676 49.6569 48.4506C49.2594 49.9875 47.9874 51.4185 46.3975 52.1604C45.2315 52.7169 44.6485 52.7964 41.9721 52.7964C39.4017 52.7964 38.8452 52.8759 38.7127 53.2204C38.6332 53.4589 38.5537 55.0488 38.5537 56.7978V59.9512H39.6137H40.6737V57.4603V54.9693L43.4031 54.8633C45.6555 54.7838 46.318 54.6513 47.4309 54.0684C48.9679 53.2734 50.8758 51.339 51.4323 49.9875C51.6443 49.484 52.1743 46.8606 52.5983 44.1312C53.0222 41.4283 53.4197 39.1759 53.4462 39.1494C53.4992 39.1229 54.8507 38.3544 56.4406 37.4269C59.6205 35.5985 60.283 35.1215 60.283 34.6445C60.283 34.4855 58.799 31.8356 56.9971 28.7882C53.7907 23.3559 53.7377 23.1969 53.5522 21.2625C53.2607 18.0826 52.3863 14.9822 50.9553 12.0143C49.7894 9.60285 49.3389 8.94037 47.3249 6.97944C44.622 4.30303 42.8996 3.21656 39.4017 2.0241C36.3543 0.990639 34.0754 0.646149 33.5984 1.14963Z" fill="#E54750"/>
<path d="M9.72061 39.3349C9.19063 39.8648 9.34962 40.3683 10.4891 41.5873C11.814 43.0447 12.9005 45.3502 13.5365 48.1591C13.934 49.8285 14.0135 51.3125 14.0135 55.1018L13.987 59.9512H14.9939H15.9744L16.1599 56.9568C16.3719 53.3264 15.9479 48.4506 15.2059 45.9861C13.828 41.4813 10.9926 38.0629 9.72061 39.3349Z" fill="#E54750"/>
</g>
<defs>
<clipPath id="clip0_22_4918">
<rect x="0.394531" y="0.857422" width="59.888" height="59.093" rx="16" fill="white"/>
</clipPath>
</defs>
</svg>
