<svg width="61" height="60" viewBox="0 0 61 60" fill="none" xmlns="http://www.w3.org/2000/svg">
<rect x="0.257812" y="0.043457" width="59.8665" height="59.9453" rx="12" fill="#E54750"/>
<g clip-path="url(#clip0_23_132)">
<path fill-rule="evenodd" clip-rule="evenodd" d="M15.6444 41.2492H20.1498C20.1984 41.2492 20.2383 41.2892 20.2383 41.3378V42.6301C20.2383 42.6787 20.1984 42.7187 20.1498 42.7187H15.6444C15.5958 42.7187 15.5559 42.6787 15.5559 42.6301V41.3378C15.5559 41.2892 15.5958 41.2492 15.6444 41.2492ZM40.5243 32.2407H45.0298C45.0783 32.2407 45.1183 32.2807 45.1183 32.3294V33.6187C45.1183 33.6673 45.0783 33.7074 45.0298 33.7074H40.5243C40.4758 33.7074 40.4358 33.6673 40.4358 33.6187V32.3294C40.4387 32.2807 40.4758 32.2407 40.5243 32.2407ZM40.5243 41.3178H45.0298C45.0783 41.3178 45.1183 41.3578 45.1183 41.4064V42.6987C45.1183 42.7473 45.0783 42.7873 45.0298 42.7873H40.5243C40.4758 42.7873 40.4358 42.7473 40.4358 42.6987V41.4064C40.4387 41.3578 40.4758 41.3178 40.5243 41.3178ZM40.5243 38.0901H45.0298C45.0783 38.0901 45.1183 38.1301 45.1183 38.1787V39.4709C45.1183 39.5195 45.0783 39.5596 45.0298 39.5596H40.5243C40.4758 39.5596 40.4358 39.5195 40.4358 39.4709V38.1787C40.4387 38.1301 40.4758 38.0901 40.5243 38.0901ZM40.5243 35.1654H45.0298C45.0783 35.1654 45.1183 35.2054 45.1183 35.254V36.5463C45.1183 36.5949 45.0783 36.6349 45.0298 36.6349H40.5243C40.4758 36.6349 40.4358 36.5949 40.4358 36.5463V35.254C40.4387 35.2054 40.4758 35.1654 40.5243 35.1654ZM37.5721 46.5468V18.6494L23.1106 13.4547V46.5468H22.2884V27.4063L13.6543 25.0448V46.5468H37.5721ZM13.2432 47.3702C13.0148 47.3702 12.832 47.1843 12.832 46.9585V24.8247C12.832 24.6589 12.9006 24.5073 13.0091 24.3958C13.1175 24.2872 13.2689 24.2186 13.4373 24.2186L22.2884 26.58V13.3547C22.2884 12.9515 22.6024 12.6313 23.0107 12.6313L37.672 17.826C38.0689 17.826 38.3972 18.1519 38.3972 18.5493V26.58L47.3111 24.2186C47.4767 24.2186 47.628 24.2872 47.7365 24.3958L47.7393 24.3987C47.8478 24.5073 47.9164 24.6589 47.9164 24.8247V46.9585C47.9164 47.1872 47.7308 47.3702 47.5052 47.3702H13.2432ZM33.295 41.0348H35.7191C35.7562 41.0348 35.7876 41.0662 35.7876 41.1034V43.5306C35.7876 43.5678 35.7562 43.5992 35.7191 43.5992H33.295C33.2579 43.5992 33.2265 43.5678 33.2265 43.5306V41.1034C33.2265 41.0662 33.2579 41.0348 33.295 41.0348ZM29.1293 41.0348H31.5534C31.5905 41.0348 31.6219 41.0662 31.6219 41.1034V43.5306C31.6219 43.5678 31.5905 43.5992 31.5534 43.5992H29.1293C29.0922 43.5992 29.0608 43.5678 29.0608 43.5306V41.1034C29.0608 41.0662 29.0922 41.0348 29.1293 41.0348ZM24.9637 41.0348H27.3877C27.4248 41.0348 27.4562 41.0662 27.4562 41.1034V43.5306C27.4562 43.5678 27.4248 43.5992 27.3877 43.5992H24.9637C24.9265 43.5992 24.8951 43.5678 24.8951 43.5306V41.1034C24.8951 41.0662 24.9265 41.0348 24.9637 41.0348ZM15.6044 38.1244H20.1441C20.1812 38.1244 20.2126 38.1473 20.2126 38.173V39.5167C20.2126 39.5424 20.1812 39.5682 20.1441 39.5682H15.6044C15.5673 39.5682 15.5359 39.5453 15.5359 39.5167V38.173C15.5359 38.1473 15.5673 38.1244 15.6044 38.1244ZM24.9551 16.5338L35.7305 20.2475C35.9104 20.2475 36.0588 20.3962 36.0588 20.5763V29.0159C36.0588 29.196 35.9104 29.3446 35.7305 29.3446H24.9551C24.7752 29.3446 24.6267 29.196 24.6267 29.0159V16.8626C24.6239 16.6796 24.7752 16.5338 24.9551 16.5338ZM15.6044 35.1883H20.1441C20.1812 35.1883 20.2126 35.2111 20.2126 35.2397V36.5834C20.2126 36.6092 20.1812 36.6349 20.1441 36.6349H15.6044C15.5673 36.6349 15.5359 36.612 15.5359 36.5834V35.2397C15.5359 35.2083 15.5673 35.1883 15.6044 35.1883ZM15.6044 32.2493H20.1441C20.1812 32.2493 20.2126 32.2722 20.2126 32.3008V33.6445C20.2126 33.6702 20.1812 33.6959 20.1441 33.6959H15.6044C15.5673 33.6959 15.5359 33.673 15.5359 33.6445V32.3008C15.5359 32.2722 15.5673 32.2493 15.6044 32.2493ZM33.295 36.7778H35.7191C35.7562 36.7778 35.7876 36.8093 35.7876 36.8465V39.2737C35.7876 39.3108 35.7562 39.3423 35.7191 39.3423H33.295C33.2579 39.3423 33.2265 39.3108 33.2265 39.2737V36.8465C33.2265 36.8093 33.2579 36.7778 33.295 36.7778ZM29.1293 36.7778H31.5534C31.5905 36.7778 31.6219 36.8093 31.6219 36.8465V39.2737C31.6219 39.3108 31.5905 39.3423 31.5534 39.3423H29.1293C29.0922 39.3423 29.0608 39.3108 29.0608 39.2737V36.8465C29.0608 36.8093 29.0922 36.7778 29.1293 36.7778ZM24.9637 36.7778H27.3877C27.4248 36.7778 27.4562 36.8093 27.4562 36.8465V39.2737C27.4562 39.3108 27.4248 39.3423 27.3877 39.3423H24.9637C24.9265 39.3423 24.8951 39.3108 24.8951 39.2737V36.8465C24.8951 36.8093 24.9265 36.7778 24.9637 36.7778ZM33.295 32.0663H35.7191C35.7562 32.0663 35.7876 32.0978 35.7876 32.1349V34.5622C35.7876 34.5993 35.7562 34.6308 35.7191 34.6308H33.295C33.2579 34.6308 33.2265 34.5993 33.2265 34.5622V32.1349C33.2265 32.0978 33.2579 32.0663 33.295 32.0663ZM29.1293 32.0663H31.5534C31.5905 32.0663 31.6219 32.0978 31.6219 32.1349V34.5622C31.6219 34.5993 31.5905 34.6308 31.5534 34.6308H29.1293C29.0922 34.6308 29.0608 34.5993 29.0608 34.5622V32.1349C29.0608 32.0978 29.0922 32.0663 29.1293 32.0663ZM24.9637 32.0663H27.3877C27.4248 32.0663 27.4562 32.0978 27.4562 32.1349V34.5622C27.4562 34.5993 27.4248 34.6308 27.3877 34.6308H24.9637C24.9265 34.6308 24.8951 34.5993 24.8951 34.5622V32.1349C24.8951 32.0978 24.9265 32.0663 24.9637 32.0663Z" fill="white"/>
</g>
<defs>
<clipPath id="clip0_23_132">
<rect width="35.0843" height="34.7388" fill="white" transform="translate(12.832 12.6313)"/>
</clipPath>
</defs>
</svg>
