<svg width="36" height="36" viewBox="0 0 36 36" fill="none" xmlns="http://www.w3.org/2000/svg">
<path fill-rule="evenodd" clip-rule="evenodd" d="M3.64401 29.2493H8.14947C8.19801 29.2493 8.23798 29.2893 8.23798 29.3379V30.6301C8.23798 30.6787 8.19801 30.7188 8.14947 30.7188H3.64401C3.59547 30.7188 3.5555 30.6787 3.5555 30.6301V29.3379C3.5555 29.2893 3.59547 29.2493 3.64401 29.2493ZM28.524 20.2408H33.0294C33.078 20.2408 33.1179 20.2808 33.1179 20.3294V21.6188C33.1179 21.6674 33.078 21.7074 33.0294 21.7074H28.524C28.4754 21.7074 28.4355 21.6674 28.4355 21.6188V20.3294C28.4383 20.2808 28.4754 20.2408 28.524 20.2408ZM28.524 29.3179H33.0294C33.078 29.3179 33.1179 29.3579 33.1179 29.4065V30.6987C33.1179 30.7473 33.078 30.7874 33.0294 30.7874H28.524C28.4754 30.7874 28.4355 30.7473 28.4355 30.6987V29.4065C28.4383 29.3579 28.4754 29.3179 28.524 29.3179ZM28.524 26.0902H33.0294C33.078 26.0902 33.1179 26.1302 33.1179 26.1788V27.471C33.1179 27.5196 33.078 27.5596 33.0294 27.5596H28.524C28.4754 27.5596 28.4355 27.5196 28.4355 27.471V26.1788C28.4383 26.1302 28.4754 26.0902 28.524 26.0902ZM28.524 23.1655H33.0294C33.078 23.1655 33.1179 23.2055 33.1179 23.2541V24.5463C33.1179 24.5949 33.078 24.635 33.0294 24.635H28.524C28.4754 24.635 28.4355 24.5949 28.4355 24.5463V23.2541C28.4383 23.2055 28.4754 23.1655 28.524 23.1655ZM25.5717 34.5469V6.64946L11.1103 1.45479V34.5469H10.288V15.4063L1.65395 13.0449V34.5469H25.5717ZM1.24281 35.3702C1.0144 35.3702 0.831665 35.1844 0.831665 34.9585V12.8247C0.831665 12.6589 0.900189 12.5074 1.00869 12.3959C1.11718 12.2873 1.26851 12.2186 1.43696 12.2186L10.288 14.5801V1.35472C10.288 0.951616 10.6021 0.631416 11.0103 0.631416L25.6716 5.82609C26.0685 5.82609 26.3969 6.152 26.3969 6.54939V14.5801L35.3107 12.2186C35.4763 12.2186 35.6276 12.2873 35.7361 12.3959L35.739 12.3988C35.8475 12.5074 35.916 12.6589 35.916 12.8247V34.9585C35.916 35.1873 35.7304 35.3702 35.5049 35.3702H1.24281ZM21.2947 29.0348H23.7187C23.7558 29.0348 23.7872 29.0663 23.7872 29.1035V31.5307C23.7872 31.5679 23.7558 31.5993 23.7187 31.5993H21.2947C21.2576 31.5993 21.2261 31.5679 21.2261 31.5307V29.1035C21.2261 29.0663 21.2576 29.0348 21.2947 29.0348ZM17.129 29.0348H19.553C19.5901 29.0348 19.6215 29.0663 19.6215 29.1035V31.5307C19.6215 31.5679 19.5901 31.5993 19.553 31.5993H17.129C17.0919 31.5993 17.0605 31.5679 17.0605 31.5307V29.1035C17.0605 29.0663 17.0919 29.0348 17.129 29.0348ZM12.9633 29.0348H15.3873C15.4244 29.0348 15.4558 29.0663 15.4558 29.1035V31.5307C15.4558 31.5679 15.4244 31.5993 15.3873 31.5993H12.9633C12.9262 31.5993 12.8948 31.5679 12.8948 31.5307V29.1035C12.8948 29.0663 12.9262 29.0348 12.9633 29.0348ZM3.60404 26.1245H8.14376C8.18087 26.1245 8.21228 26.1473 8.21228 26.1731V27.5168C8.21228 27.5425 8.18087 27.5682 8.14376 27.5682H3.60404C3.56692 27.5682 3.53551 27.5453 3.53551 27.5168V26.1731C3.53551 26.1473 3.56692 26.1245 3.60404 26.1245ZM12.9547 4.53385L23.7301 8.2476C23.91 8.2476 24.0585 8.39626 24.0585 8.57637V17.0159C24.0585 17.196 23.91 17.3447 23.7301 17.3447H12.9547C12.7748 17.3447 12.6264 17.196 12.6264 17.0159V4.86263C12.6235 4.67966 12.7748 4.53385 12.9547 4.53385ZM3.60404 23.1883H8.14376C8.18087 23.1883 8.21228 23.2112 8.21228 23.2398V24.5835C8.21228 24.6092 8.18087 24.635 8.14376 24.635H3.60404C3.56692 24.635 3.53551 24.6121 3.53551 24.5835V23.2398C3.53551 23.2084 3.56692 23.1883 3.60404 23.1883ZM3.60404 20.2494H8.14376C8.18087 20.2494 8.21228 20.2722 8.21228 20.3008V21.6445C8.21228 21.6703 8.18087 21.696 8.14376 21.696H3.60404C3.56692 21.696 3.53551 21.6731 3.53551 21.6445V20.3008C3.53551 20.2722 3.56692 20.2494 3.60404 20.2494ZM21.2947 24.7779H23.7187C23.7558 24.7779 23.7872 24.8094 23.7872 24.8465V27.2738C23.7872 27.3109 23.7558 27.3424 23.7187 27.3424H21.2947C21.2576 27.3424 21.2261 27.3109 21.2261 27.2738V24.8465C21.2261 24.8094 21.2576 24.7779 21.2947 24.7779ZM17.129 24.7779H19.553C19.5901 24.7779 19.6215 24.8094 19.6215 24.8465V27.2738C19.6215 27.3109 19.5901 27.3424 19.553 27.3424H17.129C17.0919 27.3424 17.0605 27.3109 17.0605 27.2738V24.8465C17.0605 24.8094 17.0919 24.7779 17.129 24.7779ZM12.9633 24.7779H15.3873C15.4244 24.7779 15.4558 24.8094 15.4558 24.8465V27.2738C15.4558 27.3109 15.4244 27.3424 15.3873 27.3424H12.9633C12.9262 27.3424 12.8948 27.3109 12.8948 27.2738V24.8465C12.8948 24.8094 12.9262 24.7779 12.9633 24.7779ZM21.2947 20.0664H23.7187C23.7558 20.0664 23.7872 20.0978 23.7872 20.135V22.5622C23.7872 22.5994 23.7558 22.6309 23.7187 22.6309H21.2947C21.2576 22.6309 21.2261 22.5994 21.2261 22.5622V20.135C21.2261 20.0978 21.2576 20.0664 21.2947 20.0664ZM17.129 20.0664H19.553C19.5901 20.0664 19.6215 20.0978 19.6215 20.135V22.5622C19.6215 22.5994 19.5901 22.6309 19.553 22.6309H17.129C17.0919 22.6309 17.0605 22.5994 17.0605 22.5622V20.135C17.0605 20.0978 17.0919 20.0664 17.129 20.0664ZM12.9633 20.0664H15.3873C15.4244 20.0664 15.4558 20.0978 15.4558 20.135V22.5622C15.4558 22.5994 15.4244 22.6309 15.3873 22.6309H12.9633C12.9262 22.6309 12.8948 22.5994 12.8948 22.5622V20.135C12.8948 20.0978 12.9262 20.0664 12.9633 20.0664Z" fill="#2E2E2E"/>
</svg>
