<svg width="271" height="54" viewBox="0 0 271 54" fill="none" xmlns="http://www.w3.org/2000/svg">
<path d="M270.161 52.2067C270.706 52.1181 271.076 51.6043 270.987 51.0592L269.542 42.1759C269.453 41.6308 268.939 41.2608 268.394 41.3495C267.849 41.4382 267.479 41.952 267.568 42.4971L268.852 50.3933L260.956 51.6778C260.411 51.7665 260.041 52.2803 260.13 52.8254C260.218 53.3706 260.732 53.7406 261.277 53.6519L270.161 52.2067ZM3.15784 38.8901C3.60218 38.5621 3.6965 37.936 3.3685 37.4916C3.04051 37.0473 2.41441 36.953 1.97007 37.281L3.15784 38.8901ZM5.26164 34.9309C4.80731 35.2449 4.69357 35.8677 5.00758 36.3221C5.3216 36.7764 5.94446 36.8901 6.39879 36.5761L5.26164 34.9309ZM9.70837 34.3579C10.1714 34.0568 10.3026 33.4374 10.0015 32.9744C9.70042 32.5114 9.081 32.3802 8.61801 32.6812L9.70837 34.3579ZM11.9957 30.5467C11.5251 30.8358 11.3779 31.4516 11.667 31.9222C11.9561 32.3928 12.5719 32.5399 13.0425 32.2509L11.9957 30.5467ZM16.4549 30.2118C16.9323 29.9342 17.0944 29.3221 16.8168 28.8446C16.5392 28.3672 15.9271 28.2051 15.4497 28.4827L16.4549 30.2118ZM18.9775 26.4864C18.4937 26.7529 18.3176 27.361 18.5841 27.8448C18.8505 28.3285 19.4587 28.5047 19.9425 28.2382L18.9775 26.4864ZM23.4153 26.3744C23.9048 26.1186 24.0941 25.5144 23.8382 25.0249C23.5823 24.5355 22.9781 24.3462 22.4887 24.6021L23.4153 26.3744ZM26.0751 22.7752C25.5803 23.0207 25.3783 23.6208 25.6238 24.1155C25.8693 24.6102 26.4694 24.8123 26.9641 24.5668L26.0751 22.7752ZM30.5535 22.8315C31.0531 22.5961 31.2674 22.0003 31.0321 21.5007C30.7968 21.001 30.201 20.7868 29.7013 21.0221L30.5535 22.8315ZM33.3365 19.354C32.8323 19.5794 32.6063 20.1708 32.8316 20.675C33.057 21.1793 33.6485 21.4053 34.1527 21.1799L33.3365 19.354ZM37.8251 19.5816C38.3336 19.3661 38.5712 18.7792 38.3557 18.2707C38.1403 17.7622 37.5534 17.5246 37.0449 17.74L37.8251 19.5816ZM40.7335 16.2185C40.221 16.4242 39.9723 17.0065 40.1781 17.519C40.3839 18.0316 40.9662 18.2802 41.4787 18.0745L40.7335 16.2185ZM45.197 16.6223C45.7133 16.4263 45.9729 15.8488 45.7768 15.3325C45.5808 14.8161 45.0033 14.5565 44.487 14.7526L45.197 16.6223ZM48.2453 13.3651C47.7255 13.5516 47.4552 14.1242 47.6417 14.6441C47.8282 15.1639 48.4007 15.4342 48.9206 15.2477L48.2453 13.3651ZM52.6812 13.9377C53.2044 13.7608 53.4852 13.1933 53.3083 12.6701C53.1314 12.1469 52.5639 11.8662 52.0407 12.043L52.6812 13.9377ZM55.8561 10.7917C55.3298 10.9591 55.0387 11.5214 55.2061 12.0477C55.3734 12.574 55.9357 12.865 56.4621 12.6977L55.8561 10.7917ZM60.2624 11.5272C60.7917 11.3694 61.0928 10.8125 60.935 10.2832C60.7772 9.75393 60.2202 9.45279 59.691 9.61059L60.2624 11.5272ZM63.5531 8.49692C63.0211 8.64516 62.71 9.19662 62.8582 9.72864C63.0064 10.2607 63.5579 10.5718 64.0899 10.4235L63.5531 8.49692ZM67.9276 9.3911C68.4622 9.2524 68.7831 8.70659 68.6444 8.17201C68.5057 7.63743 67.9599 7.3165 67.4253 7.45521L67.9276 9.3911ZM71.3253 6.48044C70.7883 6.60956 70.4577 7.14955 70.5868 7.68653C70.7159 8.2235 71.2559 8.55413 71.7929 8.425L71.3253 6.48044ZM75.6655 7.53012C76.2047 7.41057 76.5448 6.87655 76.4253 6.33736C76.3057 5.79817 75.7717 5.45799 75.2325 5.57755L75.6655 7.53012ZM79.1627 4.74273C78.6214 4.85267 78.2718 5.38055 78.3817 5.92178C78.4917 6.46301 79.0196 6.81264 79.5608 6.7027L79.1627 4.74273ZM83.4658 5.9455C84.0089 5.84519 84.3678 5.3236 84.2675 4.7805C84.1672 4.2374 83.6456 3.87846 83.1025 3.97877L83.4658 5.9455ZM87.0557 3.28479C86.5109 3.37545 86.1428 3.89059 86.2335 4.43538C86.3241 4.98018 86.8392 5.34832 87.384 5.25766L87.0557 3.28479ZM91.3187 4.63875C91.8651 4.55779 92.2423 4.04928 92.1613 3.50296C92.0804 2.95664 91.5719 2.5794 91.0256 2.66036L91.3187 4.63875ZM94.9952 2.10796C94.4476 2.17922 94.0614 2.68097 94.1326 3.22864C94.2039 3.77631 94.7057 4.1625 95.2533 4.09123L94.9952 2.10796ZM99.2151 3.61152C99.7639 3.55002 100.159 3.05523 100.097 2.50638C100.036 1.95753 99.5412 1.56246 98.9924 1.62396L99.2151 3.61152ZM102.972 1.21365C102.422 1.26543 102.018 1.75314 102.07 2.30299C102.122 2.85285 102.61 3.25662 103.16 3.20484L102.972 1.21365ZM107.146 2.86542C107.696 2.82348 108.109 2.34306 108.067 1.79237C108.025 1.24168 107.544 0.829255 106.994 0.871193L107.146 2.86542ZM110.977 0.603258C110.426 0.635449 110.005 1.1085 110.037 1.65985C110.069 2.21119 110.542 2.63205 111.094 2.59986L110.977 0.603258ZM115.084 2.40262C115.636 2.38028 116.065 1.91483 116.043 1.36299C116.02 0.811162 115.555 0.381919 115.003 0.404255L115.084 2.40262ZM119.001 0.277932C118.449 0.290478 118.012 0.748249 118.024 1.30039C118.037 1.85253 118.494 2.28996 119.047 2.27742L119.001 0.277932ZM123.03 2.22241C123.583 2.2197 124.028 1.7698 124.026 1.21752C124.023 0.665245 123.573 0.219727 123.021 0.222431L123.03 2.22241ZM127.036 0.238509C126.483 0.231383 126.03 0.673284 126.023 1.22552C126.016 1.77776 126.458 2.23122 127.01 2.23834L127.036 0.238509ZM130.981 2.32485C131.533 2.34179 131.994 1.90801 132.011 1.35598C132.028 0.803955 131.594 0.342725 131.042 0.325794L130.981 2.32485ZM135.072 0.48543C134.521 0.458645 134.052 0.884119 134.025 1.43575C133.998 1.98739 134.424 2.45629 134.975 2.48308L135.072 0.48543ZM138.927 2.70995C139.478 2.74648 139.954 2.32935 139.991 1.77827C140.027 1.2272 139.61 0.750855 139.059 0.714332L138.927 2.70995ZM143.077 1.01661C142.527 0.970285 142.043 1.37887 141.997 1.92921C141.951 2.47955 142.359 2.96324 142.91 3.00956L143.077 1.01661ZM146.86 3.37723C147.41 3.43325 147.9 3.03327 147.956 2.48383C148.013 1.9344 147.613 1.44357 147.063 1.38754L146.86 3.37723ZM151.052 1.82995C150.504 1.76424 150.006 2.1555 149.94 2.70386C149.875 3.25222 150.266 3.75003 150.814 3.81574L151.052 1.82995ZM154.774 4.32576C155.321 4.40115 155.826 4.01874 155.901 3.47163C155.976 2.92451 155.594 2.41987 155.047 2.34448L154.774 4.32576ZM159 2.92447C158.454 2.83954 157.943 3.21308 157.858 3.75879C157.773 4.30451 158.147 4.81575 158.693 4.90068L159 2.92447ZM162.636 5.55001C163.181 5.64451 163.698 5.28001 163.793 4.73587C163.887 4.19173 163.523 3.67401 162.979 3.57951L162.636 5.55001ZM166.914 4.29825C166.372 4.19433 165.848 4.5498 165.744 5.09222C165.64 5.63463 165.995 6.1586 166.538 6.26253L166.914 4.29825ZM170.437 7.04471C170.978 7.15801 171.508 6.81167 171.621 6.27113C171.734 5.73059 171.388 5.20055 170.847 5.08725L170.437 7.04471ZM174.789 5.9491C174.25 5.82646 173.714 6.16357 173.592 6.70206C173.469 7.24056 173.806 7.77652 174.345 7.89916L174.789 5.9491ZM178.193 8.81022C178.729 8.94201 179.271 8.61408 179.403 8.07775C179.535 7.54142 179.207 6.9998 178.67 6.868L178.193 8.81022ZM182.571 7.86207C182.037 7.72113 181.49 8.03978 181.349 8.57378C181.208 9.10778 181.527 9.65492 182.061 9.79585L182.571 7.86207ZM185.9 10.8438C186.431 10.9937 186.984 10.6844 187.134 10.1528C187.283 9.62127 186.974 9.06882 186.443 8.91888L185.9 10.8438ZM190.283 10.0371C189.754 9.87826 189.197 10.1783 189.038 10.7073C188.879 11.2362 189.179 11.7938 189.708 11.9526L190.283 10.0371ZM193.534 13.1362C194.06 13.3038 194.622 13.0131 194.79 12.4869C194.958 11.9607 194.667 11.3982 194.141 11.2306L193.534 13.1362ZM197.935 12.474C197.412 12.2977 196.845 12.5791 196.668 13.1025C196.492 13.6259 196.774 14.1931 197.297 14.3694L197.935 12.474ZM201.055 15.6693C201.575 15.8541 202.147 15.582 202.332 15.0616C202.517 14.5411 202.245 13.9694 201.724 13.7846L201.055 15.6693ZM205.526 15.1699C205.009 14.9766 204.433 15.2393 204.24 15.7566C204.046 16.274 204.309 16.8501 204.826 17.0434L205.526 15.1699ZM208.511 18.4536C209.025 18.6551 209.605 18.4016 209.807 17.8873C210.008 17.3731 209.755 16.7929 209.241 16.5914L208.511 18.4536ZM212.968 18.0862C212.457 17.8765 211.873 18.1208 211.663 18.6317C211.453 19.1427 211.698 19.7268 212.208 19.9365L212.968 18.0862ZM215.903 21.4865C216.41 21.7042 216.998 21.4692 217.216 20.9616C217.433 20.454 217.199 19.8661 216.691 19.6484L215.903 21.4865ZM220.337 21.2454C219.832 21.0199 219.241 21.2458 219.015 21.75C218.79 22.2541 219.016 22.8456 219.52 23.0711L220.337 21.2454ZM223.148 24.7275C223.648 24.9607 224.243 24.7439 224.477 24.2433C224.71 23.7426 224.493 23.1477 223.992 22.9145L223.148 24.7275ZM227.636 24.6459C227.139 24.4051 226.541 24.6128 226.3 25.1098C226.059 25.6068 226.267 26.2049 226.764 26.4458L227.636 24.6459ZM230.306 28.1946C230.799 28.4428 231.4 28.2441 231.648 27.7507C231.897 27.2573 231.698 26.6561 231.204 26.408L230.306 28.1946ZM234.781 28.2407C234.292 27.9852 233.688 28.175 233.432 28.6647C233.177 29.1543 233.366 29.7584 233.856 30.0138L234.781 28.2407ZM237.396 31.8938C237.881 32.1564 238.488 31.9755 238.751 31.4897C239.013 31.0038 238.833 30.3971 238.347 30.1344L237.396 31.8938ZM241.831 32.0501C241.349 31.7805 240.739 31.9528 240.47 32.4348C240.2 32.9169 240.372 33.5262 240.854 33.7957L241.831 32.0501ZM244.32 35.7663C244.799 36.0426 245.41 35.879 245.687 35.4009C245.963 34.9227 245.799 34.311 245.321 34.0347L244.32 35.7663ZM248.812 36.0854C248.338 35.8023 247.724 35.9572 247.441 36.4314C247.158 36.9057 247.313 37.5196 247.787 37.8027L248.812 36.0854ZM251.157 39.8458C251.627 40.1353 252.243 39.9888 252.533 39.5184C252.822 39.0481 252.676 38.4322 252.205 38.1426L251.157 39.8458ZM255.604 40.2669C255.138 39.971 254.52 40.1091 254.224 40.5755C253.928 41.0418 254.066 41.6597 254.533 41.9556L255.604 40.2669ZM257.913 44.1329C258.376 44.4351 258.995 44.3053 259.298 43.843C259.6 43.3807 259.47 42.761 259.008 42.4588L257.913 44.1329ZM262.324 44.6573C261.865 44.3492 261.244 44.4709 260.936 44.9292C260.628 45.3875 260.749 46.0089 261.208 46.317L262.324 44.6573ZM264.488 48.5537C264.942 48.8677 265.565 48.7541 265.879 48.2998C266.193 47.8455 266.08 47.2226 265.625 46.9085L264.488 48.5537ZM268.93 49.2252C268.48 48.9053 267.856 49.0109 267.536 49.4612C267.216 49.9114 267.322 50.5357 267.772 50.8555L268.93 49.2252ZM1.60711 40.0545C2.11306 39.6679 2.63001 39.2797 3.15784 38.8901L1.97007 37.281C1.43351 37.677 0.907736 38.0719 0.392886 38.4652L1.60711 40.0545ZM6.39879 36.5761C7.46511 35.8391 8.56857 35.0991 9.70837 34.3579L8.61801 32.6812C7.46281 33.4325 6.34374 34.1829 5.26164 34.9309L6.39879 36.5761ZM13.0425 32.2509C14.1503 31.5703 15.288 30.8902 16.4549 30.2118L15.4497 28.4827C14.2689 29.1692 13.1174 29.8576 11.9957 30.5467L13.0425 32.2509ZM19.9425 28.2382C21.0757 27.614 22.2335 26.9924 23.4153 26.3744L22.4887 24.6021C21.2941 25.2267 20.1235 25.8551 18.9775 26.4864L19.9425 28.2382ZM26.9641 24.5668C28.1392 23.9837 29.3358 23.4049 30.5535 22.8315L29.7013 21.0221C28.4713 21.6013 27.2624 22.186 26.0751 22.7752L26.9641 24.5668ZM34.1527 21.1799C35.358 20.6412 36.5822 20.1081 37.8251 19.5816L37.0449 17.74C35.79 18.2717 34.5538 18.81 33.3365 19.354L34.1527 21.1799ZM41.4787 18.0745C42.7016 17.5835 43.9411 17.0992 45.197 16.6223L44.487 14.7526C43.2193 15.234 41.9681 15.7228 40.7335 16.2185L41.4787 18.0745ZM48.9206 15.2477C50.1595 14.8033 51.4131 14.3664 52.6812 13.9377L52.0407 12.043C50.7609 12.4757 49.4957 12.9166 48.2453 13.3651L48.9206 15.2477ZM56.4621 12.6977C57.7157 12.2992 58.9825 11.9088 60.2624 11.5272L59.691 9.61059C58.3995 9.99563 57.1211 10.3895 55.8561 10.7917L56.4621 12.6977ZM64.0899 10.4235C65.3572 10.0704 66.6365 9.72608 67.9276 9.3911L67.4253 7.45521C66.1226 7.79319 64.8318 8.14061 63.5531 8.49692L64.0899 10.4235ZM71.7929 8.425C73.0729 8.11719 74.3639 7.81874 75.6655 7.53012L75.2325 5.57755C73.9193 5.86874 72.6168 6.16987 71.3253 6.48044L71.7929 8.425ZM79.5608 6.7027C80.8526 6.4403 82.1543 6.18775 83.4658 5.9455L83.1025 3.97877C81.7793 4.22318 80.466 4.47798 79.1627 4.74273L79.5608 6.7027ZM87.384 5.25766C88.6865 5.04091 89.9982 4.83447 91.3187 4.63875L91.0256 2.66036C89.6932 2.85782 88.3698 3.06611 87.0557 3.28479L87.384 5.25766ZM95.2533 4.09123C96.5656 3.92047 97.8862 3.76043 99.2151 3.61152L98.9924 1.62396C97.6516 1.7742 96.3192 1.93567 94.9952 2.10796L95.2533 4.09123ZM103.16 3.20484C104.481 3.08046 105.809 2.96719 107.146 2.86542L106.994 0.871193C105.645 0.973872 104.305 1.08815 102.972 1.21365L103.16 3.20484ZM111.094 2.59986C112.417 2.52261 113.747 2.45674 115.084 2.40262L115.003 0.404255C113.654 0.45886 112.312 0.525315 110.977 0.603258L111.094 2.59986ZM119.047 2.27742C120.368 2.24739 121.696 2.22894 123.03 2.22241L123.021 0.222431C121.674 0.229022 120.334 0.247635 119.001 0.277932L119.047 2.27742ZM127.01 2.23834C128.328 2.25535 129.651 2.28408 130.981 2.32485L131.042 0.325794C129.701 0.284656 128.365 0.255666 127.036 0.238509L127.01 2.23834ZM134.975 2.48308C136.287 2.54678 137.604 2.6223 138.927 2.70995L139.059 0.714332C137.725 0.6259 136.396 0.549699 135.072 0.48543L134.975 2.48308ZM142.91 3.00956C144.222 3.11999 145.539 3.24245 146.86 3.37723L147.063 1.38754C145.73 1.25157 144.401 1.12802 143.077 1.01661L142.91 3.00956ZM150.814 3.81574C152.13 3.97337 153.449 4.14328 154.774 4.32576L155.047 2.34448C153.711 2.16039 152.379 1.98897 151.052 1.82995L150.814 3.81574ZM158.693 4.90068C160.003 5.10464 161.318 5.32099 162.636 5.55001L162.979 3.57951C161.648 3.34848 160.322 3.13022 159 2.92447L158.693 4.90068ZM166.538 6.26253C167.834 6.51085 169.134 6.77149 170.437 7.04471L170.847 5.08725C169.533 4.81166 168.222 4.54874 166.914 4.29825L166.538 6.26253ZM174.345 7.89916C175.624 8.19057 176.907 8.49418 178.193 8.81022L178.67 6.868C177.373 6.54925 176.079 6.24302 174.789 5.9491L174.345 7.89916ZM182.061 9.79585C183.337 10.1327 184.617 10.482 185.9 10.8438L186.443 8.91888C185.149 8.55403 183.859 8.20183 182.571 7.86207L182.061 9.79585ZM189.708 11.9526C190.98 12.3346 192.256 12.7291 193.534 13.1362L194.141 11.2306C192.852 10.82 191.566 10.4223 190.283 10.0371L189.708 11.9526ZM197.297 14.3694C198.547 14.7904 199.8 15.2237 201.055 15.6693L201.724 13.7846C200.459 13.3353 199.196 12.8985 197.935 12.474L197.297 14.3694ZM204.826 17.0434C206.052 17.5014 207.281 17.9715 208.511 18.4536L209.241 16.5914C208 16.1054 206.762 15.6316 205.526 15.1699L204.826 17.0434ZM212.208 19.9365C213.438 20.4409 214.669 20.9575 215.903 21.4865L216.691 19.6484C215.448 19.1153 214.207 18.5946 212.968 18.0862L212.208 19.9365ZM219.52 23.0711C220.728 23.6112 221.937 24.1633 223.148 24.7275L223.992 22.9145C222.772 22.346 221.553 21.7897 220.337 21.2454L219.52 23.0711ZM226.764 26.4458C227.943 27.0171 229.124 27.6 230.306 28.1946L231.204 26.408C230.014 25.8089 228.824 25.2216 227.636 24.6459L226.764 26.4458ZM233.856 30.0138C235.035 30.6287 236.214 31.2553 237.396 31.8938L238.347 30.1344C237.157 29.4913 235.968 28.8601 234.781 28.2407L233.856 30.0138ZM240.854 33.7957C242.009 34.4411 243.164 35.0979 244.32 35.7663L245.321 34.0347C244.157 33.3616 242.993 32.7001 241.831 32.0501L240.854 33.7957ZM247.787 37.8027C248.909 38.4727 250.033 39.1537 251.157 39.8458L252.205 38.1426C251.073 37.4458 249.942 36.76 248.812 36.0854L247.787 37.8027ZM254.533 41.9556C255.659 42.6701 256.786 43.3958 257.913 44.1329L259.008 42.4588C257.872 41.7168 256.738 40.9862 255.604 40.2669L254.533 41.9556ZM261.208 46.317C262.3 47.0518 263.394 47.7973 264.488 48.5537L265.625 46.9085C264.524 46.1473 263.424 45.3969 262.324 44.6573L261.208 46.317ZM267.772 50.8555C268.32 51.2447 268.868 51.6366 269.416 52.0312L270.584 50.4083C270.033 50.0111 269.482 49.6168 268.93 49.2252L267.772 50.8555Z" fill="#E54750"/>
</svg>
